<?xml version="1.0" encoding="utf-8"?>
<!-- Generator: Adobe Illustrator 21.1.0, SVG Export Plug-In . SVG Version: 6.00 Build 0)  -->
<svg version="1.1" id="svg2" xmlns="http://www.w3.org/2000/svg" xmlns:xlink="http://www.w3.org/1999/xlink" x="0px" y="0px"
	 width="900px" height="900px" viewBox="0 0 900 900" enable-background="new 0 0 900 900" xml:space="preserve">
<g id="g4" transform="matrix(1.7656463,0,0,1.7656463,324.90716,255.00942)">
	<g id="g6">
		<path id="path8" fill="#FFFFFF" stroke="#000000" stroke-width="0.172" d="M-122.3,84.3c0,0,0.1,1.9-0.7,1.9
			c-0.8,0-17.3-48.1-37.8-45.9C-160.8,40.3-143.1,33-122.3,84.3z"/>
	</g>
	<g id="g10">
		<path id="path12" fill="#FFFFFF" stroke="#000000" stroke-width="0.172" d="M-118.8,81.3c0,0-0.6,1.8-1.3,1.5
			c-0.8-0.3,0.1-51.1-20-56C-140,26.8-120.8,25.9-118.8,81.3L-118.8,81.3z"/>
	</g>
	<g id="g14">
		<path id="path16" fill="#FFFFFF" stroke="#000000" stroke-width="0.172" d="M-91.3,123.6c0,0,1.6,1,1.2,1.6
			c-0.5,0.7-49.6-12.1-59.1,6.2C-149.2,131.5-145.5,112.6-91.3,123.6L-91.3,123.6z"/>
	</g>
	<g id="g18">
		<path id="path20" fill="#FFFFFF" stroke="#000000" stroke-width="0.172" d="M-94.1,133.8c0,0,1.9,0.4,1.6,1.2
			c-0.2,0.8-50.9,4.1-54.1,24.5C-146.6,159.5-149.1,140.4-94.1,133.8z"/>
	</g>
	<g id="g22">
		<path id="path24" fill="#FFFFFF" stroke="#000000" stroke-width="0.172" d="M-98.3,128.3c0,0,1.8,0.7,1.4,1.4s-51-3.3-57.1,16.4
			C-154,146.1-153.7,126.8-98.3,128.3z"/>
	</g>
	<g id="g26">
		<path id="path28" fill="#FFFFFF" stroke="#000000" stroke-width="0.172" d="M-109,110.1c0,0,1.3,1.4,0.7,1.9s-44.4-25.3-58.5-10.3
			C-166.9,101.7-158.1,84.5-109,110.1L-109,110.1z"/>
	</g>
	<g id="g30">
		<path id="path32" fill="#FFFFFF" stroke="#000000" stroke-width="0.172" d="M-116.6,114.3c0,0,1.4,1.2,0.9,1.8
			c-0.6,0.6-47-20.1-59.3-3.6C-175,112.5-168.3,94.4-116.6,114.3z"/>
	</g>
	<g id="g34">
		<path id="path36" fill="#FFFFFF" stroke="#000000" stroke-width="0.172" d="M-119.2,118.3c0,0,1.6,1,1.1,1.7
			c-0.5,0.7-49.3-13.6-59.3,4.5C-177.3,124.5-173.1,105.8-119.2,118.3L-119.2,118.3z"/>
	</g>
	<g id="g38">
		<path id="path40" fill="#FFFFFF" stroke="#000000" stroke-width="0.172" d="M-108.4,119c0,0,1.1,1.5,0.4,2
			c-0.7,0.4-40.8-30.8-56.7-17.7C-164.7,103.2-153.9,87.3-108.4,119z"/>
	</g>
	<g id="g42">
		<path id="path44" fill="#FFFFFF" stroke="#000000" stroke-width="0.172" d="M-128.2,90c0,0,0.6,1.8-0.2,2
			c-0.8,0.2-29.4-41.8-48.6-34.2C-177,57.8-161.8,46-128.2,90z"/>
	</g>
	<g id="g46">
		<path id="path48" fill="#FFFFFF" stroke="#000000" stroke-width="0.172" d="M-127.5,97c0,0,1,1.6,0.2,2
			c-0.7,0.4-37.7-34.5-54.8-22.9C-182.1,76.1-169.8,61.3-127.5,97L-127.5,97z"/>
	</g>
	<g id="g50">
		<path id="path52" fill="#FFFFFF" stroke="#000000" stroke-width="0.172" d="M-127.6,101.4c0,0,1.1,1.5,0.4,2
			c-0.7,0.4-40.8-30.8-56.7-17.7C-183.9,85.6-173.1,69.7-127.6,101.4L-127.6,101.4z"/>
	</g>
	<g id="g54">
		<path id="path56" fill="#FFFFFF" stroke="#000000" d="M-129.8,103.1c0.5,6.1,1.5,12.6,3.2,15.7c0,0-3.6,12.4,5.2,25.6
			c0,0-0.4,7.2,1.2,10.4c0,0,4,8.4,8.8,9.2c3.9,0.6,12.6,3.7,22.5,5.1c0,0,17.1,14.1,13.9,26.9c0,0-0.4,16.4-4,18
			c0,0,11.6-11.2,2,5.6l-4.4,18.8c0,0,25.6-21.6,10-3.2l-10,26c0,0,19.6-18.4,12.4-10l-3.2,8.8c0,0,43.2-27.2,12.4,2.4
			c0,0,8-3.6,12.4-0.8c0,0,6.8-1.2,6,0.4c0,0-20.8,10.4-24.4,28.8c0,0,8.4-10,5.2,0.8l0.4,11.6c0,0,4-21.6,3.6,16
			c0,0,19.2-18,7.6,2.8v16.8c0,0,15.2-16.4,8.8-3.6c0,0,10-8.8,6,6.4c0,0-0.8,10.4,3.6-0.8c0,0,16-30.6,10-4.4c0,0-0.8,19.2,4,4.4
			c0,0,0.4,10.4,9.6,17.6c0,0-1.2-50.8,11.6-14.8l4,16.4c0,0,2.8-9.2,2.4-14.4l8,8c0,0,15.2-22.8,12-9.6c0,0-7.6,16-6,20.8
			c0,0,16.8-34.8,18-36.4c0,0-2,42.4,8.8,6.4c0,0,5.6,12,2.8,16.4c0,0,8-8,7.2-11.2c0,0,4.6-8.2,7.4,5.4c0,0,1.8,9.4,3.4,6.2
			c0,0,4,24,5.2,1.2c0,0,1.6-13.6-5.6-25.2c0,0,0.8-3.2-2-7.2c0,0,13.6,21.6,6.4-7.2c0,0,11.2,8,12.4,8c0,0-13.6-23.2-4.8-18.4
			c0,0-5.2-10.4,12.8,1.6c0,0-16-16,1.6-6.4c0,0,8,6.4,0.4-3.6c0,0-14.4-16,7.6,2c0,0,11.6,16.4,12.4,19.2c0,0-10-29.2-14.4-32
			c0,0,8.4-36.4,49.6-20.8c0,0,6.8,17.2,11.2-1.2c0,0,12.8-6.4,24,21.2c0,0,4-13.6,3.2-16.4c0,0,6.8,1.2,6,0c0,0,13.2,4.4,14.4,3.6
			c0,0,6.8,6.8,7.2,3.2c0,0,9.2,2.8,7.2-0.8c0,0,8.8,15.6,9.2,19.2l2.4-14l2,2.8c0,0,1.6-7.6,0.8-8.8s20,6.8,24.8,27.6l2,8.4
			c0,0,6-14.8,4.4-18.8c0,0,5.2,0.8,5.6,5.2c0,0,4-23.2-0.8-29.2c0,0,4.4-0.8,5.6,2.8v-7.2c0,0,7.2,0.8,7.2-1.6c0,0,4.4-4,6.4,0.8
			c0,0-12.4-35.2,6-16c0,0,7.2,10.8,3.6-8s-7.6-20.4-2.8-20.8c0,0,0.8-3.6-1.2-5.2s1.2,0,1.2,0s4.8,4-0.4-18c0,0,6.4,1.6-5.6-27.6
			c0,0,2.8-2.4-1.2-10.8c0,0,8,4.4,10.8,2.8c0,0-0.4-1.6-3.6-5.6c0,0-21.6-54.8-1.2-32.8c0,0,11.9,13.6,5.5-9.3c0,0-9.1-24-8.3-28.3
			L-129.8,103.1L-129.8,103.1z"/>
	</g>
	<g id="g58">
		<path id="path60" fill="#CC7226" stroke="#000000" d="M299.7,80.2c0.6,0.2,2.8,1.3,4.1,3c0,0,6.8,10.8,1.6-7.6
			c0,0-9.2-28.8-0.4-17.6c0,0,6,7.2,2.8-6.4c-3.9-16.4-6.4-22.8-6.4-22.8S313,33.6,286.2-6l8.8,3.6c0,0-19.6-39.6-41.2-44.8l-8-6
			c0,0,38.4-38,25.6-74.8c0,0-6.8-5.2-16.4,4c0,0-6.4,4.8-12.4,3.2c0,0-30.8,1.2-32.8,1.2s-36.8-37.2-102.4-19.6c0,0-5.2,2-9.6,0.8
			c0,0-18.4-16-67.2,6.8c0,0-10,2-11.6,2s-4.4,0-12.4,6.4c-8,6.4-8.4,7.2-10.4,8.8c0,0-16.4,11.2-21.2,12c0,0-11.6,6.4-16,16.4
			l-3.6,1.2c0,0-1.6,7.2-2,8.4c0,0-4.8,3.6-5.6,9.2c0,0-8.8,6-8.4,10.4c0,0-1.6,5.2-2.4,10c0,0-7.2,4.8-6.4,7.6c0,0-7.6,14-6.4,20.8
			c0,0-6.4-0.4-9.2,2c0,0-0.8,4.8-2.4,5.2c0,0-2.8,1.2-0.4,5.2c0,0-1.6,2.8-2,4.4c0,0,0.8,2.8-3.6,8.4c0,0-6.4,18.8-4.4,24
			c0,0,0.4,4.8-2.4,6.4c0,0-3.6-0.4,4.8,11.6c0,0,0.8,1.2-2.4,3.6c0,0-17.2,3.6-19.6,20c0,0-13.6,14.8-13.6,20c0,2.3,0.3,5.5,1,10.1
			c0,0-0.6,8.3,27,9.1S299.7,80.2,299.7,80.2L299.7,80.2z"/>
	</g>
	<g id="g62">
		<path id="path64" fill="#CC7226" d="M-115.6,102.6c-25-39.4-10.6,17-10.6,17c8.8,34.4,138.4-3.2,138.4-3.2S181,86,192.2,82
			c11.2-4,106.4,2.4,106.4,2.4L293,67.6c-64.8-46.4-84-23.2-97.6-27.2c-13.6-4-11.2,5.6-14.4,6.4s-42.4-24-48.8-23.2
			c-6.4,0.8-31.7-23-16.8,8.8c16,34-58.4,39.2-75.2,28s7.2,18.4,7.2,18.4c18.4,20-16,3.2-16,3.2C-3,69.2-27,94.8-30.2,95.6
			s-8,4-8.8-2.4s-8.3-23.1-40,3.2C-99,113-112.8,91-112.8,91L-115.6,102.6L-115.6,102.6z"/>
	</g>
	<g id="g66">
		<path id="path68" fill="#E87F3A" d="M133.5,25.3c-6.4,0.8-31.8-22.9-16.8,8.8c16.6,35.2-58.4,39.2-75.2,28
			c-16.8-11.2,7.2,18.4,7.2,18.4c18.4,20-16,3.2-16,3.2C-1.7,70.9-25.7,96.5-28.9,97.3s-8,4-8.8-2.4c-0.8-6.4-8.2-22.9-40,3.2
			c-21.2,17.3-34.7-4.1-34.7-4.1l-3.2,10.1c-25-39.8-9.9,18.5-9.9,18.5c8.8,34.4,139.1-4.5,139.1-4.5s168.8-30.4,180-34.4
			c11.2-4,105.5,2.3,105.5,2.3l-5.5-17.3c-64.8-46.4-83.2-22.6-96.8-26.6c-13.6-4-11.2,5.6-14.4,6.4S139.9,24.5,133.5,25.3
			L133.5,25.3z"/>
	</g>
	<g id="g70">
		<path id="path72" fill="#EA8C4D" d="M134.8,27.1c-6.4,0.8-31.1-23.2-16.8,8.8c16.2,36.2-58.4,39.2-75.2,28S50,82.3,50,82.3
			c18.4,20-16,3.2-16,3.2C-0.4,72.7-24.4,98.3-27.6,99.1s-8,4-8.8-2.4c-0.8-6.4-8-22.8-40,3.2C-98.9,118-112,97.1-112,97.1l-3.6,8.6
			c-23.8-39-9.3,20-9.3,20c8.8,34.4,139.7-5.8,139.7-5.8s168.8-30.4,180-34.4c11.2-4,104.7,2.3,104.7,2.3L294,69.9
			c-64.8-46.4-82.4-22-96-26c-13.6-4-11.2,5.6-14.4,6.4C180.4,51.1,141.2,26.3,134.8,27.1L134.8,27.1z"/>
	</g>
	<g id="g74">
		<path id="path76" fill="#EC9961" d="M136.1,28.8c-6.4,0.8-31.1-23.2-16.8,8.8c16.8,37.6-58.9,38.8-75.2,28
			C27.3,54.4,51.3,84,51.3,84c18.4,20-16,3.2-16,3.2C0.9,74.4-23.1,100-26.3,100.8c-3.2,0.8-8,4-8.8-2.4c-0.8-6.4-7.9-22.6-40,3.2
			c-23.7,18.8-36.6-1.5-36.6-1.5l-4,7.1c-21.8-36.8-8.6,21.5-8.6,21.5c8.8,34.4,140.4-7.1,140.4-7.1s168.8-30.4,180-34.4
			c11.2-4,103.8,2.2,103.8,2.2l-5.4-18.3c-64.8-46.4-81.6-21.5-95.2-25.5c-13.6-4-11.2,5.6-14.4,6.4S142.5,28,136.1,28.8L136.1,28.8
			z"/>
	</g>
	<g id="g78">
		<path id="path80" fill="#EEA575" d="M137.4,30.6c-6.4,0.8-30.6-23.5-16.8,8.8c16.8,39.2-58.4,39.2-75.2,28s7.2,18.4,7.2,18.4
			c18.4,20-16,3.2-16,3.2C2.2,76.2-21.8,101.8-25,102.6s-8,4-8.8-2.4c-0.8-6.4-7.8-22.4-40,3.2c-24.9,19.6-37.5-0.2-37.5-0.2
			l-4.4,5.6c-19.8-34.8-7.9,23-7.9,23c8.8,34.4,141-8.4,141-8.4S186.2,93,197.4,89c11.2-4,102.9,2.1,102.9,2.1L295,72.3
			c-64.8-46.4-80.8-20.9-94.4-24.9c-13.6-4-11.2,5.6-14.4,6.4S143.8,29.8,137.4,30.6L137.4,30.6z"/>
	</g>
	<g id="g82">
		<path id="path84" fill="#F1B288" d="M138.8,32.3c-6.4,0.8-32.4-22.7-16.8,8.8c19.2,38.8-58.4,39.2-75.2,28s7.2,18.4,7.2,18.4
			c18.4,20-16,3.2-16,3.2c-34.4-12.8-58.4,12.8-61.6,13.6s-8,4-8.8-2.4c-0.8-6.4-7.7-22.3-40,3.2c-26.2,20.3-38.4,1.1-38.4,1.1
			l-4.8,4.2c-18-33.2-7.2,24.5-7.2,24.5c8.8,34.4,141.7-9.7,141.7-9.7s168.8-30.4,180-34.4c11.2-4,102,2,102,2l-5.2-19.3
			c-64.8-46.4-80-20.3-93.6-24.3c-13.6-4-11.2,5.6-14.4,6.4S145.2,31.5,138.8,32.3L138.8,32.3z"/>
	</g>
	<g id="g86">
		<path id="path88" fill="#F3BF9C" d="M140.1,34.1c-6.4,0.8-32.8-22.5-16.8,8.8c20.4,40-58.4,39.2-75.2,28s7.2,18.4,7.2,18.4
			c18.4,20-16,3.2-16,3.2c-34.4-12.8-58.4,12.8-61.6,13.6s-8,4-8.8-2.4c-0.8-6.4-7.5-22.1-40,3.2c-27.4,21.1-39.4,2.3-39.4,2.3
			l-5.2,2.7c-16-30.2-6.6,26.1-6.6,26.1c8.8,34.4,142.3-11.1,142.3-11.1s168.8-30.4,180-34.4c11.2-4,101.2,2,101.2,2l-5.2-19.9
			c-64.8-46.4-79.2-19.7-92.8-23.7c-13.6-4-11.2,5.6-14.4,6.4S146.5,33.3,140.1,34.1L140.1,34.1z"/>
	</g>
	<g id="g90">
		<path id="path92" fill="#F5CCB0" d="M141.4,35.8c-6.4,0.8-33.8-21.9-16.8,8.8c22,39.6-58.4,39.2-75.2,28S56.6,91,56.6,91
			c18.4,20-16,3.2-16,3.2C6.2,81.4-17.8,107-21,107.8s-8,4-8.8-2.4c-0.8-6.4-7.4-21.9-40,3.2c-28.7,21.8-40.3,3.6-40.3,3.6l-5.6,1.2
			c-14.4-28.4-5.9,27.6-5.9,27.6c8.8,34.4,143-12.4,143-12.4s168.8-30.4,180-34.4c11.2-4,100.3,1.9,100.3,1.9l-5.1-20.4
			c-64.8-46.4-78.4-19.1-92-23.1c-13.6-4-11.2,5.6-14.4,6.4S147.8,35,141.4,35.8z"/>
	</g>
	<g id="g94">
		<path id="path96" fill="#F8D8C4" d="M142.7,37.6c-6.4,0.8-33.8-21.9-16.8,8.8c22,39.6-58.4,39.2-75.2,28s7.2,18.4,7.2,18.4
			c18.4,20-16,3.2-16,3.2c-34.4-12.8-58.4,12.8-61.6,13.6s-8,4-8.8-2.4s-7.3-21.8-40,3.2c-29.9,22.6-41.2,4.9-41.2,4.9l-6-0.3
			C-129.4,88.6-121,144-121,144c8.8,34.4,143.6-13.7,143.6-13.7S191.5,100,202.7,96c11.2-4,99.4,1.8,99.4,1.8l-5-20.9
			c-64.8-46.4-77.6-18.5-91.2-22.5c-13.6-4-11.2,5.6-14.4,6.4S149.1,36.8,142.7,37.6L142.7,37.6z"/>
	</g>
	<g id="g98">
		<path id="path100" fill="#FAE5D7" d="M144,39.3c-6.4,0.8-33.5-22.1-16.8,8.8c22,40.8-58.4,39.2-75.2,28s7.2,18.4,7.2,18.4
			c18.4,20-16,3.2-16,3.2c-34.4-12.8-58.4,12.8-61.6,13.6c-3.2,0.8-8,4-8.8-2.4s-7.1-21.6-40,3.2c-31.1,23.3-42.1,6.2-42.1,6.2
			l-6.4-1.8c-13-24-4.6,30.6-4.6,30.6c8.8,34.4,144.3-15,144.3-15s168.8-30.4,180-34.4c11.2-4,98.6,1.7,98.6,1.7l-5-21.4
			c-64.8-46.4-76.8-18-90.4-22c-13.6-4-11.2,5.6-14.4,6.4S150.4,38.5,144,39.3L144,39.3z"/>
	</g>
	<g id="g102">
		<path id="path104" fill="#FCF2EB" d="M145.3,41.1c-6.4,0.8-32.4-22.6-16.8,8.8c21.2,42.8-58.4,39.2-75.2,28s7.2,18.4,7.2,18.4
			c18.4,20-16,3.2-16,3.2c-34.4-12.8-58.4,12.8-61.6,13.6s-8,4-8.8-2.4s-7-21.4-40,3.2c-32.4,24.1-43.1,7.5-43.1,7.5l-6.8-3.3
			c-12.8-23.2-3.9,32.1-3.9,32.1c8.8,34.4,144.9-16.3,144.9-16.3s168.8-30.4,180-34.4c11.2-4,97.7,1.7,97.7,1.7l-4.9-21.9
			c-64.8-46.4-76-17.4-89.6-21.4c-13.6-4-11.2,5.6-14.4,6.4C190.9,65.1,151.7,40.3,145.3,41.1L145.3,41.1z"/>
	</g>
	<g id="g106">
		<path id="path108" fill="#FFFFFF" d="M-115.8,119.6c-12.8-22-3.2,33.6-3.2,33.6c8.8,34.4,145.6-17.6,145.6-17.6
			s168.8-30.4,180-34.4c11.2-4,96.8,1.6,96.8,1.6l-4.8-22.4c-64.8-46.4-75.2-16.8-88.8-20.8c-13.6-4-11.2,5.6-14.4,6.4
			S153,42,146.6,42.8s-31.6-23-16.8,8.8C152,99.3,69,89.2,54.6,79.6C37.8,68.4,61.8,98,61.8,98c18.4,20-16,3.2-16,3.2
			C11.4,88.4-12.6,114-15.8,114.8s-8,4-8.8-2.4s-6.9-21.3-40,3.2c-33.6,24.8-44,8.8-44,8.8L-115.8,119.6L-115.8,119.6z"/>
	</g>
	<g id="g110">
		<path id="path112" d="M-74.2,149.6c0,0-7.2,11.6,13.6,24.8c0,0,1.4,1.4-16.6-2.8c0,0-6.2-2-7.8-12.4c0,0-4.8-4.4-9.6-10
			C-99.4,143.6-74.2,149.6-74.2,149.6z"/>
	</g>
	<g id="g114">
		<path id="path116" fill="#CCCCCC" d="M65.8,102c0,0,17.7,26.8,17.1,31.6c-1.3,10.4-1.5,20,1.7,24c3.2,4,12,37.2,12,37.2
			s-0.4,1.2,12-36.8c0,0,11.6-16-8.4-34.4C100.2,123.6,65,94.8,65.8,102L65.8,102z"/>
	</g>
	<g id="g118">
		<path id="path120" d="M-54.2,176.4c0,0,11.2,7.2-3.2,38.4l6.4-2.4c0,0-0.8,11.2-4,13.6l7.2-3.2c0,0,4.8,8,0.8,12.8
			c0,0,16.8,8,16,14.4c0,0,6.4-8,2.4-14.4s-11.2-2.4-10.4-20.8l-8.8,3.2c0,0,5.6-8.8,5.6-15.2l-8,2.4c0,0,15.5-26.6,4.8-28
			C-51.4,176.4-54.2,176.4-54.2,176.4z"/>
	</g>
	<g id="g122">
		<path id="path124" fill="#CCCCCC" d="M-21.8,193.2c0,0,2.8-4.4,0-3.6s-34,15.6-40,25.2C-61.8,214.8-27.4,190.4-21.8,193.2
			L-21.8,193.2z"/>
	</g>
	<g id="g126">
		<path id="path128" fill="#CCCCCC" d="M-11.4,201.2c0,0,2.8-4.4,0-3.6s-34,15.6-40,25.2C-51.4,222.8-17,198.4-11.4,201.2
			L-11.4,201.2z"/>
	</g>
	<g id="g130">
		<path id="path132" fill="#CCCCCC" d="M1.8,186c0,0,2.8-4.4,0-3.6s-34,15.6-40,25.2C-38.2,207.6-3.8,183.2,1.8,186L1.8,186z"/>
	</g>
	<g id="g134">
		<path id="path136" fill="#CCCCCC" d="M-21.4,229.6c0,0,0-6-2.8-5.2s-38.8,18.4-44.8,28C-69,252.4-27,226.8-21.4,229.6z"/>
	</g>
	<g id="g138">
		<path id="path140" fill="#CCCCCC" d="M-20.2,218.8c0,0,1.2-4.8-1.6-4c-2,0-28.4,11.6-34.4,21.2C-56.2,236-26.6,214.4-20.2,218.8z"
			/>
	</g>
	<g id="g142">
		<path id="path144" fill="#CCCCCC" d="M-34.6,266.4l-10,7.6c0,0,10.4-7.6,14-6.4c0,0-6.8,11.2-7.6,16.4c0,0,10.4-12.8,16-12.4
			c0,0,7.6,0.4,7.6,11.2c0,0,5.6-10.4,8.8-10c0,0,1.2,6.4,0,13.2c0,0,4-7.6,8-6c0,0,6.4-2,5.6,9.6c0,0,0,10.4-0.8,13.2
			c0,0,5.6-26.4,8-26.8c0,0,8-1.2,12.8,7.6c0,0-4-7.6,0.8-5.6c0,0,10.8,1.6,14,8.4c0,0-6.8-12-1.2-8.8l8,6.4c0,0,8.4,21.2,10.4,22.8
			c0,0-7.6-21.6-6-21.6c0,0-2-12,3.2,2.8c0,0-3.2-14,2.4-13.2s10,10.8,18.4,8.4c0,0,9.6,5.6,11.6-63.6L-34.6,266.4L-34.6,266.4z"/>
	</g>
	<g id="g146">
		<path id="path148" d="M-29.8,173.6c0,0,14.8-6,54.8,0c0,0,7.2,0.4,14-8.4s33.6-16,40-14l9.6,6.4l0.8,1.2c0,0,12.4,10.4,12.8,18
			s-14.4,55.6-24,71.6c-9.6,16-19.2,28.4-38.4,26c0,0-20.8-4-46.4,0c0,0-29.2-1.6-32-9.6s11.2-23.2,11.2-23.2s4.4-8.4,3.2-22.8
			C-25.4,204.4-25,176.4-29.8,173.6L-29.8,173.6z"/>
	</g>
	<g id="g150">
		<path id="path152" fill="#E5668C" d="M-7.8,175.6C0.6,194-29,259.2-29,259.2c-2,1.6,12.7,7.6,22.8,5.2C4.7,261.8,45,266,45,266
			c23.6-15.6,36.4-60,36.4-60s10.4-24-7.2-27.2C56.6,175.6-7.8,175.6-7.8,175.6L-7.8,175.6z"/>
	</g>
	<g id="g154">
		<path id="path156" fill="#B23259" d="M-9.8,206.5c3.3-12.8,4.9-24.6,2-30.9c0,0,62.4,6.4,73.6-14.4c4.2-7.9,19,22.8,18.6,32.4
			c0,0-63,14.4-77.8,3.2L-9.8,206.5L-9.8,206.5z"/>
	</g>
	<g id="g158">
		<path id="path160" fill="#A5264C" d="M-5.4,222.8c0,0,2,7.2-0.4,11.2c0,0-1.6,0.8-2.8,1.2c0,0,1.2,3.6,7.2,5.2c0,0,2,4.4,4.4,4.8
			s7.2,6,11.2,4.8s15.2-5.2,15.2-5.2s5.6-3.2,14.4,0.4c0,0,2.4-0.8,2.8-4.8c0.5-4.7,3.6-8.4,5.6-10.4c2-2,11.6-14.8,10.4-15.2
			S-5.4,222.8-5.4,222.8L-5.4,222.8z"/>
	</g>
	<g id="g162">
		<path id="path164" fill="#FF727F" stroke="#000000" d="M-9.8,174.4c0,0-2.8,22.4,0.4,30.8c3.2,8.4,2.4,10.4,1.6,14.4
			c-0.8,4,3.6,14,9.2,20l12,1.6c0,0,15.2-3.6,24.4-0.8c0,0,9,1.3,12.4-13.6c0,0,4.8-6.4,12-9.2s14.4-44.4,10.4-52.4
			s-18.4-12.4-34.4,3.2S20.2,167.2-9.8,174.4L-9.8,174.4z"/>
	</g>
	<g id="g166">
		<path id="path168" fill="#FFFFCC" stroke="#000000" stroke-width="0.5" d="M-8.2,249.2c0,0-0.8-2-5.2-2.4c0,0-22.4-3.6-30.8-16
			c0,0-6.8-5.6-2.4,6c0,0,10.4,20.4,17.2,23.2C-29.4,260-13,264-8.2,249.2z"/>
	</g>
	<g id="g170">
		<path id="path172" fill="#CC3F4C" d="M71.7,185.2c0.7-7.9,2.6-16.5,0.9-20c-6.4-12.9-23.4-7.5-34.4,3.2c-16,15.6-18-1.2-48,6
			c0,0-1.7,14-0.9,24c0,0,37.3-11.6,38.1-6c0,0,1.6-3.2,10.8-3.2S70.1,188,71.7,185.2z"/>
	</g>
	<g id="g174">
		<path id="path176" fill="none" stroke="#A51926" stroke-width="2" d="M28.6,175.2c0,0,4.8,4.8,1.2,14.4c0,0-14.4,16-12.4,30"/>
	</g>
	<g id="g178">
		<path id="path180" fill="#FFFFCC" stroke="#000000" stroke-width="0.5" d="M-19.4,260c0,0-4.4-12.8,4.4-6l3.6,3.6
			C-12.6,259.2-18.2,263.2-19.4,260z"/>
	</g>
	<g id="g182">
		<path id="path184" fill="#FFFFCC" stroke="#000000" stroke-width="0.5" d="M-14.4,261.2c0,0-3.5-10.2,3.5-4.8l2.9,2.9
			C-12.5,260.6-8,263.1-14.4,261.2L-14.4,261.2z"/>
	</g>
	<g id="g186">
		<path id="path188" fill="#FFFFCC" stroke="#000000" stroke-width="0.5" d="M-9.6,261.2c0,0-3.5-10.2,3.5-4.8l2.9,2.9
			C-6.5,260.6-3.2,263.1-9.6,261.2L-9.6,261.2z"/>
	</g>
	<g id="g190">
		<path id="path192" fill="#FFFFCC" stroke="#000000" stroke-width="0.5" d="M-3,261.4c0,0-3.5-10.2,3.5-4.8c0,0,4.4,2.3,2.9,2.9
			C0.5,260.6,3.4,263.3-3,261.4L-3,261.4z"/>
	</g>
	<g id="g194">
		<path id="path196" fill="#FFFFCC" stroke="#000000" stroke-width="0.5" d="M3.5,261.3c0,0-3.5-10.2,3.5-4.8l2.9,2.9
			C9,260.7,9.9,263.2,3.5,261.3L3.5,261.3z"/>
	</g>
	<g id="g198">
		<path id="path200" fill="#FFFFCC" stroke="#000000" stroke-width="0.5" d="M10.2,262c0,0-4.8-12.4,4.4-6l3.6,3.6
			C17,261.2,18.2,264.4,10.2,262z"/>
	</g>
	<g id="g202">
		<path id="path204" fill="none" stroke="#A5264C" stroke-width="2" d="M-18.2,244.8c0,0,13.2-2.8,19.2,0.4c0,0,6,1.2,7.2,0.8
			s4.4-0.8,4.4-0.8"/>
	</g>
	<g id="g206">
		<path id="path208" fill="none" stroke="#A5264C" stroke-width="2" d="M15.8,253.6c0,0,12-13.6,24-9.2c7,2.6,6-0.8,6.8-3.6
			s1-7,6-10"/>
	</g>
	<g id="g210">
		<path id="path212" fill="#FFFFCC" stroke="#000000" stroke-width="0.5" d="M33,237.6c0,0-4-10.8-6.8,2s-6,16.4-7.6,19.2
			c0,0,0,5.2,8.4,4.8c0,0,10.8-0.4,11.2-3.2S37,246,33,237.6L33,237.6z"/>
	</g>
	<g id="g214">
		<path id="path216" fill="none" stroke="#A5264C" stroke-width="2" d="M47,244.8c0,0,3.6-2.4,6-1.2"/>
	</g>
	<g id="g218">
		<path id="path220" fill="none" stroke="#A5264C" stroke-width="2" d="M53.5,228.4c0,0,2.9-4.9,7.7-5.7"/>
	</g>
	<g id="g222">
		<path id="path224" fill="#B2B2B2" d="M-25.8,265.2c0,0,18,3.2,22.4,1.6l0.4,2l-20.8-1.2C-23.8,267.6-35.4,262-25.8,265.2z"/>
	</g>
	<g id="g226">
		<path id="path228" fill="#FFFFCC" stroke="#000000" stroke-width="0.5" d="M-11.8,172l19.6,0.8c0,0,7.2,30.8,3.6,38.4
			c0,0-1.2,2.8-4-2.8c0,0-18.4-32.8-21.6-34.8S-13,172-11.8,172z"/>
	</g>
	<g id="g230">
		<path id="path232" fill="#FFFFCC" stroke="#000000" stroke-width="0.5" d="M-88.9,169.3c0,0,8.9,1.7,21.5,4.3c0,0,4.8,22.4,8,27.2
			c3.2,4.8-0.4,4.8-4,2C-67,200-81.8,186-83.8,181.6S-88.9,169.3-88.9,169.3z"/>
	</g>
	<g id="g234">
		<path id="path236" fill="#FFFFCC" stroke="#000000" stroke-width="0.5" d="M-67,173.8c0,0,5.8,1.6,6.8,3.8c1,2.2-1.2,5.5-1.2,5.5
			s-1,3.3-2.2,1.1C-64.8,182.1-67.7,174.4-67,173.8L-67,173.8z"/>
	</g>
	<g id="g238">
		<path id="path240" d="M-67,173.6c0,0,3.6,5.2,7.2,5.2s4-0.4,6.8,0.2c4.6,1,4.2-1,10.8,0.2c2.6,0.5,5.2-0.4,8,0.8s6,0.4,7.2-1.6
			s6-6.2,6-6.2s-12.8,1.8-15.6,2.6C-36.6,174.8-59,176-67,173.6z"/>
	</g>
	<g id="g242">
		<path id="path244" fill="#FFFFCC" stroke="#000000" stroke-width="0.5" d="M-22.4,173.8c0,0-6.5,3.5-6.9,5.9s5.3,6.1,5.3,6.1
			s2.8,4.6,3.4,2.2S-21.6,174.2-22.4,173.8z"/>
	</g>
	<g id="g246">
		<path id="path248" fill="#FFFFCC" stroke="#000000" stroke-width="0.5" d="M-59.9,179.3c0,0,7,11.2,7.2,0c0,0,0.6-1.3-1.2-1.3
			C-59.9,177.9-58.4,173.8-59.9,179.3z"/>
	</g>
	<g id="g250">
		<path id="path252" fill="#FFFFCC" stroke="#000000" stroke-width="0.5" d="M-52.7,179.5c0,0,7.9,11.2,7.3-0.1c0,0,0-0.3-1.7-0.5
			C-51.9,178.5-51.6,174-52.7,179.5L-52.7,179.5z"/>
	</g>
	<g id="g254">
		<path id="path256" fill="#FFFFCC" stroke="#000000" stroke-width="0.5" d="M-45.5,179.5c0,0,8,10.6,7.3,1c0,0,0.1-1.2-1.5-1.5
			C-43.6,178.2-43.8,175-45.5,179.5L-45.5,179.5z"/>
	</g>
	<g id="g258">
		<path id="path260" fill="#FFFFCC" stroke="#000000" stroke-width="0.5" d="M-38.6,179.6c0,0,7.9,11.6,8.2,1.8c0,0,1.6-1.4-0.1-1.6
			C-36.3,179-35.5,174.6-38.6,179.6z"/>
	</g>
	<g id="g262">
		<path id="path264" fill="#E5E5B2" d="M-74.8,183.1l-7.7-1.5c-2.6-5-4.7-11.1-4.7-11.1s6.3,1,18.8,3.8c0,0,0.9,3.3,2.3,9.1
			L-74.8,183.1L-74.8,183.1z"/>
	</g>
	<g id="g266">
		<path id="path268" fill="#E5E5B2" d="M-9.7,178.5c-1.7-2.5-3-4.3-3.6-4.7c-3-1.9,1.1-1.5,2.3-1.5l18.5,0.8c0,0,0.5,2.2,1.2,5.6
			C8.6,178.7-1.5,176.7-9.7,178.5z"/>
	</g>
	<g id="g270">
		<path id="path272" fill="#CC7226" d="M43.9,40.3c27.7,4,53.2-31.7,55-41.4c1.8-9.7-8.4-21.6-8.4-21.6c1.3-3.1-3.5-17.2-8.8-26.4
			S60.5-57.3,43-58.2C27.2-59.1,8.7-35.8,7.4-34s4.8,40,6.2,45.8s-1.3,32.1-1.3,32.1C46.4,34.7,16.2,36.4,43.9,40.3L43.9,40.3z"/>
	</g>
	<g id="g274">
		<path id="path276" fill="#EA8E51" d="M8.1-33.4c-1.3,1.7,4.8,39.3,6,44.9s-1.3,31.5-1.3,31.5c32.7-8.9,3.9-7.3,31.1-3.5
			C71.2,43.5,96.2,8.5,97.9-1c1.7-9.5-8.2-21.2-8.2-21.2c1.3-3-3.5-16.8-8.6-25.9s-20.8-8.1-38-9.1C27.5-58,9.4-35.1,8.1-33.4z"/>
	</g>
	<g id="g278">
		<path id="path280" fill="#EFAA7C" d="M8.8-32.7C7.5-31,13.5,5.8,14.8,11.4c1.3,5.5-1.3,31-1.3,31c31.4-9.2,3.8-7.2,30.5-3.4
			C70.7,42.7,95.3,8.4,97-0.9c1.7-9.3-8.1-20.8-8.1-20.8c1.3-3-3.4-16.5-8.5-25.4s-20.4-8-37.3-8.9C27.9-56.9,10.1-34.4,8.8-32.7
			L8.8-32.7z"/>
	</g>
	<g id="g282">
		<path id="path284" fill="#F4C6A8" d="M9.5-32.1c-1.2,1.7,4.6,37.9,5.8,43.3c1.2,5.4-1.2,30.4-1.2,30.4c29.4-9,3.7-7.1,30-3.3
			c26.2,3.7,50.3-30,52-39.1c1.7-9.2-7.9-20.4-7.9-20.4c1.2-2.9-3.3-16.2-8.3-25s-20-7.8-36.6-8.7C28.3-55.8,10.8-33.8,9.5-32.1z"/>
	</g>
	<g id="g286">
		<path id="path288" fill="#F9E2D3" d="M10.3-31.4C9-29.8,14.8,5.7,16,11s-1.2,29.8-1.2,29.8c27.9-8.9,3.7-6.9,29.4-3.3
			c25.7,3.7,49.4-29.4,51-38.4c1.6-9-7.8-20-7.8-20c1.2-2.9-3.3-15.9-8.2-24.5S59.6-53,43.3-53.9C28.6-54.7,11.5-33.1,10.3-31.4
			L10.3-31.4z"/>
	</g>
	<g id="g290">
		<path id="path292" fill="#FFFFFF" d="M44.2,36.8C69.4,40.4,92.6,8,94.2-0.8s-7.6-19.6-7.6-19.6c1.2-2.8-3.2-15.6-8-24
			s-19.3-7.5-35.2-8.4C29-53.6,12.2-32.4,11-30.8c-1.2,1.6,4.4,36.4,5.6,41.6S15.4,40,15.4,40C40.9,31.4,19,33.2,44.2,36.8z"/>
	</g>
	<g id="g294">
		<path id="path296" fill="#CCCCCC" d="M90.6,2.8c0,0-27.8,7.6-39.4,6c0,0-15.8-6.6-24.6,15.2c0,0-3.6,7.2-5.6,9.2
			S90.6,2.8,90.6,2.8z"/>
	</g>
	<g id="g298">
		<path id="path300" d="M94.4,0.6c0,0-29,12.2-39,11.8c0,0-16.4-4.6-24.8,10c0,0-8.4,9.2-11.6,10.8c0,0-0.4,1.6,6-2.4L35.4,36
			c0,0,14.8,9.6,24.4-6.4c0,0,4-11.2,4-13.2s21.2-7.6,22.8-8C88.2,8,94.8,3.8,94.4,0.6L94.4,0.6z"/>
	</g>
	<g id="g302">
		<path id="path304" fill="#99CC32" d="M47,36.5c-6.9,0-15.2-3.9-15.2-10.1c0-6.2,8.4-12.5,15.2-12.5c6.9,0,12.4,5.1,12.4,11.3
			C59.4,31.4,53.9,36.5,47,36.5z"/>
	</g>
	<g id="g306">
		<path id="path308" fill="#659900" d="M43.4,19.8c-4.8,0.7-9.9,2.2-9.9,2c1.5-4.6,7.9-8,13.5-8c4.3,0,8.1,2,10.3,5
			C57.3,18.9,52,18.5,43.4,19.8z"/>
	</g>
	<g id="g310">
		<path id="path312" fill="#FFFFFF" d="M55.4,19.6c0,0-4.4-3.2-4.4-1C51,18.6,54.6,23,55.4,19.6z"/>
	</g>
	<g id="g314">
		<path id="path316" d="M45.4,27.7c-2.5,0-4.5-2-4.5-4.5c0-2.5,2-4.5,4.5-4.5c2.5,0,4.5,2,4.5,4.5C49.9,25.7,47.9,27.7,45.4,27.7z"
			/>
	</g>
	<g id="g318">
		<path id="path320" fill="#CC7226" d="M-58.6,14.4c0,0-3.2-21.2-0.8-25.6c0,0,10.8-10,10.4-13.6c0,0-0.4-18-1.6-18.8
			s-8.8-6.8-14.8-0.4c0,0-10.4,18-9.6,24.4v2c0,0-7.6-0.4-9.2,1.6c0,0-1.2,5.2-2.4,5.6c0,0-2.8,2.4-0.8,5.2c0,0-2,2.4-1.6,6.4l7.6,4
			c0,0,2,14.4,12.8,19.6C-63.8,27.1-60.6,20.4-58.6,14.4z"/>
	</g>
	<g id="g322">
		<path id="path324" fill="#FFFFFF" d="M-59.6,12.6c0,0-2.9-19.1-0.7-23c0,0,9.7-9,9.4-12.2c0,0-0.4-16.2-1.4-16.9
			s-7.9-6.1-13.3-0.4c0,0-9.4,16.2-8.6,22v1.8c0,0-6.8-0.4-8.3,1.4c0,0-1.1,4.7-2.2,5c0,0-2.5,2.2-0.7,4.7c0,0-1.8,2.2-1.4,5.8
			l6.8,3.6c0,0,1.8,13,11.5,17.6C-64.2,24-61.4,18-59.6,12.6L-59.6,12.6z"/>
	</g>
	<g id="g326">
		<path id="path328" fill="#EB955C" d="M-51.1-42.6c-1.1-0.9-8.6-6.6-14.4-0.4c0,0-10.1,17.6-9.4,23.8v2c0,0-7.4-0.4-9,1.6
			c0,0-1.2,5.1-2.3,5.5c0,0-2.7,2.3-0.8,5.1c0,0-1.9,2.3-1.6,6.2l7.4,3.9c0,0,1.9,14,12.5,19.1c4.7,2.3,7.8-4.3,9.8-10.1
			c0,0-3.1-20.7-0.8-25c0,0,10.5-9.8,10.1-13.3C-49.5-24.3-49.9-41.8-51.1-42.6L-51.1-42.6z"/>
	</g>
	<g id="g330">
		<path id="path332" fill="#F2B892" d="M-51.5-41.6c-1-0.9-8.4-6.5-14.1-0.4c0,0-9.9,17.1-9.1,23.2v1.9c0,0-7.2-0.4-8.7,1.5
			c0,0-1.1,4.9-2.3,5.3c0,0-2.7,2.3-0.8,4.9c0,0-1.9,2.3-1.5,6.1l7.2,3.8c0,0,1.9,13.7,12.2,18.6c4.6,2.2,7.6-4.2,9.5-9.9
			c0,0-3-20.1-0.8-24.3c0,0,10.3-9.5,9.9-12.9C-50-23.8-50.4-40.9-51.5-41.6L-51.5-41.6z"/>
	</g>
	<g id="g334">
		<path id="path336" fill="#F8DCC8" d="M-52-40.6c-0.9-1-8.1-6.3-13.7-0.4c0,0-9.6,16.7-8.9,22.6v1.9c0,0-7-0.4-8.5,1.5
			c0,0-1.1,4.8-2.2,5.2c0,0-2.6,2.2-0.7,4.8c0,0-1.8,2.2-1.5,5.9l7,3.7c0,0,1.8,13.3,11.8,18.1c4.5,2.2,7.4-4.1,9.3-9.6
			c0,0-3-19.6-0.7-23.7c0,0,10-9.3,9.6-12.6C-50.5-23.2-50.8-39.9-52-40.6L-52-40.6z"/>
	</g>
	<g id="g338">
		<path id="path340" fill="#FFFFFF" d="M-59.6,12.5c0,0-2.9-19-0.7-22.9c0,0,9.7-9,9.4-12.2c0,0-0.4-16.2-1.4-16.9
			c-0.8-1-7.9-6.1-13.3-0.4c0,0-9.4,16.2-8.6,22v1.8c0,0-6.8-0.4-8.3,1.4c0,0-1.1,4.7-2.2,5c0,0-2.5,2.2-0.7,4.7
			c0,0-1.8,2.2-1.4,5.8l6.8,3.6c0,0,1.8,13,11.5,17.6C-64.2,24-61.4,17.9-59.6,12.5L-59.6,12.5z"/>
	</g>
	<g id="g342">
		<path id="path344" fill="#CCCCCC" d="M-62.7,6.2c0,0-21.6-10.2-22.5-11c0,0,9.1,8.2,9.9,8.2S-62.7,6.2-62.7,6.2z"/>
	</g>
	<g id="g346">
		<path id="path348" d="M-79.8,0c0,0,18.4,3.6,18.4,8c0,2.9-0.2,16.3-5.6,14.8C-75.4,20.4-71.8,6-79.8,0z"/>
	</g>
	<g id="g350">
		<path id="path352" fill="#99CC32" d="M-71.4,3.8c0,0,9,1.5,10,4.2c0.6,1.6,1.3,9.9-4.2,11C-70.2,19.9-72.4,9.7-71.4,3.8z"/>
	</g>
	<g id="g354">
		<path id="path356" d="M14.6,46.3c-0.5-1.7,0.8-1.6,2.6-2.1c2-0.6,14.2-4.4,15-7c0.8-2.6,14,1.8,14,1.8c1.8,0.8,6.2,3.4,6.2,3.4
			c4.8,1.2,11.4,1.6,11.4,1.6c2.4,1,5.8,3.8,5.8,3.8c14.6,10.2,27,3,27,3c20-6.6,14-23.8,14-23.8c-3-9,0.2-12.4,0.2-12.4
			c0.2-3.8,7.4,2.6,7.4,2.6c2.6,4.2,3.4,9.2,3.4,9.2c8,11.2,4.6-6.6,4.6-6.6c0.2-1-2.6-4.6-2.6-5.8s-1.8-4.6-1.8-4.6
			C118.8,6,121.2-1,121.2-1c1.8-13.8-0.4-12-0.4-12c-1.2-1.8-10.4,8.2-10.4,8.2c-2.2,3.4-8.2,5-8.2,5C99.4,2,96,0.6,96,0.6
			c-2.6-0.4-8.2,6.6-8.2,6.6c2.8-0.2,5.2,4.2,7.6,4.4s4.2-2.4,5.8-3c1.6-0.6,4.4,5.2,4.4,5.2c0.4,2.6-5.2,7.4-5.2,7.4
			c-0.4,4.6-2,3-2,3c-3-0.6-4.2,3.2-5.2,7.8S88,37,88,37c-1.6,7.4-2.8,4.4-2.8,4.4C85,35.8,79,41.6,79,41.6c-1.2,2-5.8-0.2-5.8-0.2
			c-6.8-2-4.4-4-4.4-4c1.8-2.2,13,0,13,0c2.2-1.6-5.8-5.6-5.8-5.6c-0.6-1.8,0.4-6.2,0.4-6.2c1.2-3.2,8-8.8,8-8.8
			C93.8,15.6,91,14,91,14c-6.2-5.2-12,2.4-12,2.4c-2.2,6.2-19.6,21.2-19.6,21.2c-4.8,3.4-2.2-3.4-6.2,0S28.6,32,28.6,32
			C17,30.8,14.3,46.5,10.8,43.4C10.8,43.4,16.2,51.9,14.6,46.3L14.6,46.3z"/>
	</g>
	<g id="g358">
		<path id="path360" d="M209.4-120c0,0-25.6,8-28.4,26.8c0,0-2.4,22.8,18,40.4c0,0,0.4,6.4,2.4,9.6c0,0-1.6,4.8,17.2-2.8l27.2-8.4
			c0,0,6.4-2.4,11.6-11.2c5.2-8.8,20.4-27.6,16.8-52.8c0,0,1.2-11.2-4.8-11.6c0,0-8.4-1.6-15.6,6c0,0-6.8,3.2-9.2,2.8L209.4-120z"/>
	</g>
	<g id="g362">
		<path id="path364" d="M264-121c0,0,2.1-8.9-2.7-4.1c0,0-7,5.7-14.5,5.7c0,0-14.5,2.2-18.9,15.4c0,0-4,26.8,4,32.6
			c0,0,4.8,7.5,11.9,0.9C250.7-77.1,266.2-107.4,264-121L264-121z"/>
	</g>
	<g id="g366">
		<path id="path368" fill="#323232" d="M263.7-120.6c0,0,2.1-8.8-2.7-4c0,0-6.9,5.6-14.3,5.6c0,0-14.3,2.2-18.6,15.1
			c0,0-3.9,26.4,3.9,32c0,0,4.8,7.3,11.7,0.9C250.6-77.5,265.8-107.2,263.7-120.6L263.7-120.6z"/>
	</g>
	<g id="g370">
		<path id="path372" fill="#666666" d="M263.3-120.3c0,0,2.1-8.6-2.6-3.9c0,0-6.8,5.5-14,5.5c0,0-14,2.1-18.2,14.8
			c0,0-3.8,25.9,3.8,31.4c0,0,4.7,7.2,11.4,0.8C250.5-78,265.4-107.1,263.3-120.3z"/>
	</g>
	<g id="g374">
		<path id="path376" fill="#999999" d="M262.9-119.9c0,0,2.1-8.4-2.5-3.8c0,0-6.7,5.4-13.7,5.4c0,0-13.7,2.1-17.9,14.6
			c0,0-3.8,25.4,3.7,30.8c0,0,4.6,7.1,11.2,0.8C250.4-78.4,265-107,262.9-119.9L262.9-119.9z"/>
	</g>
	<g id="g378">
		<path id="path380" fill="#CCCCCC" d="M262.5-119.6c0,0,2.1-8.2-2.4-3.7c0,0-6.5,5.3-13.5,5.3c0,0-13.5,2-17.5,14.3
			c0,0-3.7,24.9,3.7,30.2c0,0,4.5,6.9,11,0.8C250.3-78.8,264.6-106.9,262.5-119.6z"/>
	</g>
	<g id="g382">
		<path id="path384" fill="#FFFFFF" d="M262.2-119.2c0,0,2-8-2.4-3.6c0,0-6.4,5.2-13.2,5.2c0,0-13.2,2-17.2,14
			c0,0-3.6,24.4,3.6,29.6c0,0,4.4,6.8,10.8,0.8S264.2-106.8,262.2-119.2z"/>
	</g>
	<g id="g386">
		<path id="path388" fill="#992600" d="M50.6,84c0,0-20.4-19.2-28.4-20c0,0-34.4-4-49.2,14c0,0,17.6-20.4,45.2-14.8
			c0,0-21.6-4.4-34-1.2l-26.4,14l-2.8,4.8c0,0,4-14.8,22.4-20.8c0,0,22.8-4.8,33.6,0c0,0-21.6-6.8-31.6-4.8c0,0-30.4-2.4-43.2,24
			c0,0,4-14.4,18.8-21.6c0,0,13.6-8.8,34-6c0,0,14.4,3.2,19.6,5.6s4-0.4-4.4-5.2c0,0-5.6-10-19.6-9.6c0,0-42.8,3.6-53.2,15.6
			c0,0,13.6-11.2,24-14c0,0,22.4-8,30.8-7.2c0,0,24.8,1,32.4-3c0,0-11.2,5-8,8.2s10,10.8,10,12s24.2,23.3,27.8,27.7
			C48.4,81.7,50.6,84,50.6,84z"/>
	</g>
	<g id="g390">
		<path id="path392" fill="#CCCCCC" d="M189,278c0,0-15.5-36.5-28-46c0,0,26,16,29.5,34C190.5,266,190.5,276,189,278z"/>
	</g>
	<g id="g394">
		<path id="path396" fill="#CCCCCC" d="M236,285.5c0,0-26.5-55-45-79c0,0,43.5,37.5,48.5,64l0.5,5.5l-3-2.5
			C237,273.5,236.5,282.5,236,285.5z"/>
	</g>
	<g id="g398">
		<path id="path400" fill="#CCCCCC" d="M292.5,237c0,0-62.5-59.5-64-62c0,0,60.5,66,63.5,73.5C292,248.5,290,239.5,292.5,237z"/>
	</g>
	<g id="g402">
		<path id="path404" fill="#CCCCCC" d="M104,280.5c0,0,19.5-52,38.5-29.5c0,0,15,10,14.5,13c0,0-4-6.5-22-6
			C135,258,116,255,104,280.5z"/>
	</g>
	<g id="g406">
		<path id="path408" fill="#CCCCCC" d="M294.5,153c0,0-45-28.5-52.5-30c-11.8-2.4,49.5,29,54.5,39.5
			C296.5,162.5,298.5,160,294.5,153z"/>
	</g>
	<g id="g410">
		<path id="path412" d="M143.8,259.6c0,0,20.4-2,27.2-8.8l4.4,3.6L193,216l3.6,5.2c0,0,14.4-14.8,13.6-22.8c-0.8-8,12.8,6,12.8,6
			s-0.8-11.6,6.4-4.8c0,0-2.4-15.6,6-7.6c0,0-10.5-30.2,12-4.4c5.6,6.4,1.2-0.4,1.2-0.4s-26-48-4.4-33.6c0,0,2-22.8,0.8-27.2
			c-1.2-4.4-3.2-26.8-8-32s0.4-6.8,6-1.6c0,0-11.2-24,2-12c0,0-3.6-15.2-8-18c0,0-5.6-17.2,9.6-6.4c0,0-4.4-12.4-7.6-15.6
			c0,0-11.6-27.6-4.4-22.8l4.4,3.6c0,0-6.8-14-0.4-9.6s6.4,4,6.4,4s-21.2-33.2-0.8-15.6c0,0-8.2-13.9-11.6-20.8
			c0,0-18.8-20.4-4.4-14l4.8,1.6c0,0-8.8-10-16.8-11.6s2.4-8,8.8-6c6.4,2,22,9.6,22,9.6s12.8,18.8,16.8,19.2c0,0-20-7.6-14,0.4
			c0,0,14.4,14,7.2,13.6c0,0-6,7.2-1.2,16c0,0-18.5-18.4-3.6,7.2L259,32c0,0-24.4-24.8-13.2-2.8c0,0,17.2,23.6,19.2,24
			s6.4,9.2,6.4,9.2l-4.4-2l5.2,8.8c0,0-11.2-12-5.2,1.2l5.6,14.4c0,0-20.4-22-6.8,7.6c0,0-16.4-5.2-7.6,12c0,0-1.6,16-1.2,21.2
			c0.4,5.2,1.6,33.6-2.8,41.6c-4.4,8,6,27.2,8,31.2c2,4,5.6,14.8-3.2,5.6c-8.8-9.2-4.4-3.6-2.4,5.2c2,8.8,8,24.4,7.2,30
			c0,0-1.2,1.2-4.4-2.4c0,0-14.8-22.8-13.2-8.4c0,0-1.2,8-4.4,16.8c0,0-3.2,10.8-3.2,2c0,0-3.2-16.8-6-9.2s-6.4,13.6-9.2,16
			c-2.8,2.4-8-20.4-9.2-10c0,0-12-12.4-16.8,4l-11.6,16.4c0,0-0.4-12.4-1.6-6.4C184.2,258,154.2,264,143.8,259.6L143.8,259.6z"/>
	</g>
	<g id="g414">
		<path id="path416" d="M109.4-97.2c0,0-11.6-8-15.6-7.6s27.6-8.8,68.8,18.8c0,0,4.8,2.8,8.4,2.4c0,0,3.2,2.4,0.4,6
			c0,0-8.8,9.6,2.4,20.8c0,0,18.4,6.8,12.8-2c0,0,10.8,4,13.2,8c2.4,4,1.2,0,1.2,0l-12.4-12.4c0,0-5.2-2-8-10.4s-5.2-18.4-0.8-21.6
			c0,0-4,4.4-3.2,0.4c0.8-4,4.4-7.6,6-8s18-16.2,24.8-16.6c0,0-9.2,1.4-12.2,0.4s-29.6-12.4-35.6-13.6c0,0-16.8-6.6-4.8-4.6
			c0,0,35.8,3.8,54,17c0,0-7.2-8.4-25.6-15.4c0,0-22.2-12.6-57.4-7.6c0,0-17.8,3.2-25.6,5c0,0-2.6-0.6-3.2-1s-12.4-9.4-40-2.4
			c0,0-17,4.6-25.6,9.4c0,0-15.2,1.2-18.8,4.4c0,0-18.6,14.6-20.6,15.4s-13.4,8.4-14.2,8.8c0,0,24.6-6.6,27-9s19.8-5,22.2-3.6
			s10.8,0.8,1.2,1.4c0,0,75.6,14.8,76.4,16.8C105.4-96,109.4-97.2,109.4-97.2L109.4-97.2z"/>
	</g>
	<g id="g418">
		<path id="path420" fill="#CC7226" d="M180.8-106.4c0,0-10.2-7.4-12.2-7.4s-14.4-10.2-18.6-9.8s-16.4-9.6-43.8-1.4c0,0-0.6-2,3-2.8
			c0,0,6.4-2.2,6.8-2.8c0,0,20.2-4.2,27.4-0.6c0,0,9.2,2.6,15.4,8.8c0,0,11.2,3.2,14.4,2.2c0,0,8.8,2.2,9.2,4c0,0,5.8,3,4,5.6
			C186.4-110.6,186.8-109,180.8-106.4L180.8-106.4z"/>
	</g>
	<g id="g422">
		<path id="path424" fill="#CC7226" d="M168.3-108.5c0.8,0.6,1.8,0.7,2.4,1.5c0.2,0.3-0.1,0.6-0.4,0.7c-1,0.3-2.1-0.3-3.2,0.3
			c-0.4,0.2-1,0-1.6-0.1c-1.6-0.4-3.5-0.5-5.1,0.2c-2-1.1-4.3-0.5-6.4-1.6c-0.1,0-0.3,0.3-0.4,0.3c-3-1.2-6.8-0.9-9.2-3.2
			c-2.4-0.4-4.8-0.9-7.2-1.6c-1.8-0.5-3.2-1.5-4.9-2.3c-1.4-0.7-2.8-1.2-4.4-1.6c-1.9-0.4-3.7-0.3-5.6-0.9c-0.1,0-0.3,0.3-0.4,0.3
			c-0.3-0.1-0.6-0.7-0.8-0.6c-1.7,0.5-3.2-0.4-4.8-0.1c-1.2-1.2-2.9-1-4.4-1.4c-3-0.8-6.1,0.4-9.2-0.6c4.1-1.8,8.8-0.6,12.9-2.7
			c2.3-1.2,5-0.1,7.6-0.8c0.5-0.2,1.2-0.3,1.6,0.3c0.1-0.1,0.3-0.4,0.4-0.3c2.4,1.2,4.8,2.4,7.2,3.5c0.3,0.2,0.9-0.1,1.1,0.1
			c1.5,1.2,3.5,1.1,4.9,2.3c1.7-0.5,3.5-0.1,5.2-0.8c0.1,0,0.3,0.3,0.3,0.3c1.1-0.8,2.3-0.5,3.2-0.2c0.3,0.1,1,0.4,1.3,0.4
			c1.1,0.3,2,0.8,3.2,0.9c0.1,0,0.3-0.3,0.4-0.3c1.1,0.4,2.2,0.4,2.8,1.6c0.1-0.1,0.3-0.4,0.4-0.3c1,0.3,1.7,1.1,2.8,1.3
			c0.5,0.1,1.1,0.7,1.7,0.9c2.4,0.7,4.2,2.3,6.4,3.2C166.8-109.2,167.7-109,168.3-108.5L168.3-108.5z"/>
	</g>
	<g id="g426">
		<path id="path428" fill="#CC7226" d="M91.7-122.7c-2.5-1.7-4.9-2.8-7.3-4.6c-0.2-0.1-0.5,0-0.7-0.1c-1-0.6-1.9-1.2-2.9-1.9
			c-0.5-0.4-1.4-0.4-1.9-0.6c-2.5-1.3-5.2-1.9-7.7-3c0.7-0.6,1.8-0.4,2.4-1.2c0.2,0.3,0.4,0.6,0.8,0.4c1.7-0.9,3.5-1.1,5.2-1
			c1.7,0.1,3.4,0.4,5.2,0.7c0.3,0,0.5,0.6,0.8,0.7c2.2,0.7,4.6,0.1,6.7,1c1.6,0.6,3.2,1.4,4.4,2.7c0.3,0.3-0.1,0.6-0.4,0.8
			c0.4-0.1,0.7,0.1,0.8,0.4c0.1,0.2,0.1,0.5,0,0.8c-0.1,0.3-0.4,0.4-0.8,0.5c-1.4,0.2,0.4-1.2-0.3-0.7c-1.3,0.8-0.5,2.2-1.3,3.5
			c-0.3-0.2-0.5-0.4-0.4-0.8c0.2,0.5-0.4,0.8-0.5,1.1C93.5-123.6,92.6-122.1,91.7-122.7L91.7-122.7z"/>
	</g>
	<g id="g430">
		<path id="path432" fill="#CC7226" d="M59.2-115.4c-3.2-0.8-6.2-0.7-9.2-2c-0.1,0-0.3,0.3-0.4,0.3c-1.4-0.6-2.3-1.6-3.4-2.6
			c-0.9-0.9-2.6-0.5-3.8-1c-0.3-0.1-0.5-0.6-0.8-0.7c-1.2-0.2-2.1-1.1-3.2-1.7c2.3-0.8,4.7-0.8,7.2-1.2c0.1,0,0.3,0.3,0.4,0.3
			c0.1,0,0.3-0.2,0.4-0.4c0.2,0.3,0.5,0.6,0.8,0.3c0.5-0.5,1.1-0.3,1.6-0.3c0.1,0,0.3,0.3,0.4,0.3c0.1,0,0.3-0.3,0.4-0.3
			c0.1,0,0.3,0.3,0.4,0.3c0.1,0,0.3-0.2,0.4-0.4c0.7,0.8,1.6,0.2,2.4,0.4c1,0.2,1.3,1.4,2.4,1.7c4.7,1.3,8.9,3.4,13.2,5.5
			c0.3,0.1,0.5,0.4,0.4,0.8c0.3,0,0.6-0.1,0.8,0c1.1,0.7,2.1,1.3,2.8,2.4c0.2,0.3-0.1,0.8-0.3,0.7C67.6-113.7,63.6-114.3,59.2-115.4
			z"/>
	</g>
	<g id="g434">
		<path id="path436" fill="#CC7226" d="M45.3-71.2c-1.6-1.2-2.2-3.3-3.3-5c-0.2-0.3,0.1-0.7,0.4-0.7c0.6-0.2,1.1,0.3,1.5,0.5
			c1.7,0.9,3.3,2.1,5.3,2.2c2,2.2,6.3,2.6,6.3,6c0,0.9-1.4-0.1-1.9,0.8c-2.5-1-4.8-0.9-7.2-2.4C45.8-70.1,46.1-70.6,45.3-71.2
			L45.3-71.2z"/>
	</g>
	<g id="g438">
		<path id="path440" fill="#CC7226" d="M17.8-123.8c0.1,0,7.2,0.2,7.1,0.3c0,0.3-7.8,1.4-8.1,1.2c-0.2-0.1-7.7,2.3-7.8,2.2
			C9.3-120.1,17.5-123.8,17.8-123.8z"/>
	</g>
	<g id="g442">
		<path id="path444" d="M33.2-114c0,0-14.8,1.8-19.2,3s-23,8.8-26,10.8c0,0-13.4,5.4-30.4,25.4c0,0,7.6-3.4,9.8-6.2
			c0,0,13.6-12.6,13.4-10c0,0,12.2-8.6,11.6-6.4c0,0,24.4-11.2,22.4-8c0,0,21.6-4.6,20.6-2.6c0,0,18.8,4.4,16,4.6
			c0,0-5.8,1.2,0.6,4.8c0,0-3.4,4.4-8.8,0.4c-5.4-4-2.4-1.8-7.4-0.8c0,0-2.6,0.8-7.2-3.2c0,0-5.6-4.6-14.4-1
			c0,0-30.6,12.6-32.6,13.2c0,0-3.6,2.8-6,6.4c0,0-5.8,4.4-8.8,5.8c0,0-12.8,11.6-14,13c0,0-3.4,5.2-4.2,5.6c0,0,6.4-3.8,8.4-5.8
			c0,0,14-10,19.4-10.8c0,0,4.4-3,5.2-4.4c0,0,14.4-9.2,18.6-9.2c0,0,9.2,5.2,11.6-1.8c0,0,5.8-1.8,11.4-0.6c0,0,3.2-2.6,2.4-4.8
			c0,0,1.6-1.8,2.6,2c0,0,3.4,3.6,8.2,1.6c0,0,4-0.2,2,2.2c0,0-4.4,3.8-16.2,4c0,0-12.4,0.6-28.8,8.2c0,0-29.8,10.4-39,20.8
			c0,0-6.4,8.8-11.8,10c0,0-5.8,0.8-11.8,8.2c0,0,9.8-5.8,18.8-5.8c0,0,4-2.4,0.2,1.2c0,0-3.6,7.6-2,13c0,0-0.6,5.2-1.4,6.8
			c0,0-7.8,12.8-7.8,15.2S-60.2,3-59.8,3.6s-1-1.6,2.8,0.8s6.6,4,7.4,6.8s-2-5.4-2.2-7.2s-4.4-9-3.6-11.4c0,0,1,1,1.8,2.4
			c0,0-0.6-0.6,0-4.2c0,0,0.8-5.2,2.2-8.4s3.4-7,3.8-7.8s0.4-6.6,1.8-4l3.4,2.6c0,0-2.8-2.6-0.6-4.8c0,0-1-5.6,0.8-8.2
			c0,0,7-8.4,8.6-9.4c1.6-1,0.2-0.6,0.2-0.6s6-4.2,0.2-2.6c0,0-4,1.6-7,1.6c0,0-7.6,2-3.6-2.2s14-9.6,17.8-9.4l0.8,1.6l11.2-2.4
			l-1.2,0.8c0,0-0.2-0.2,4-0.6s10,1,11.4-0.8c1.4-1.8,4.8-2.8,4.4-1.4C4.2-63.8,4-61.8,4-61.8s5-5.8,4.4-3.6
			C7.8-63.2-0.4-58-1.8-51.8L8.6-60l3.6-3c0,0,3.6,2.2,3.8,0.6c0.2-1.6,4.8-7.4,6-7.2s3.2-2.6,3,0s7.4,8,7.4,8s3.2-1.8,4.6-0.4
			s5.6-19.8,5.6-19.8l25-10.6l43.6-3.4l-17-6.8L33.2-114L33.2-114z"/>
	</g>
	<g id="g446">
		<path id="path448" fill="none" stroke="#4C0000" stroke-width="2" d="M51.4,85c0,0-15-16.8-23.4-19.4c0,0-13.4-6.8-38,1"/>
	</g>
	<g id="g450">
		<path id="path452" fill="none" stroke="#4C0000" stroke-width="2" d="M24.8,64.2c0,0-25.2-8-40.6-3.8c0,0-18.4,2-26.8,15.8"/>
	</g>
	<g id="g454">
		<path id="path456" fill="none" stroke="#4C0000" stroke-width="2" d="M21.2,63c0,0-17-7.2-31.8-9.4c0,0-16.6-2.6-33.2,4.6
			c0,0-12.2,6-17.6,16.2"/>
	</g>
	<g id="g458">
		<path id="path460" fill="none" stroke="#4C0000" stroke-width="2" d="M22.2,63.4c0,0-15.4-11-16.4-12.4c0,0-7-11-20-11.4
			c0,0-21.4,0.8-38.6,8.8"/>
	</g>
	<g id="g462">
		<path id="path464" d="M20.9,54.4c1.5,1.5,28.5,30.4,28.5,30.4c35.2,36.6,7.2,2.4,7.2,2.4C49,82.4,39.8,63.6,39.8,63.6
			c-1.2-2.8,14,7.2,14,7.2c4,0.8,17.6,20,17.6,20c-6.8-2.4-2,4.8-2,4.8c2.8,2,23.2,17.6,23.2,17.6c3.6,4,7.6,5.6,7.6,5.6
			c14-5.2,7.6,8,7.6,8c2.4,6.8,8-4.8,8-4.8c11.2-16.8-5.2-14.4-5.2-14.4c-30,2.8-36.8-13.2-36.8-13.2c-2.4-2.4,6.4,0,6.4,0
			C88.6,96.4,73,82,73,82c2.4,0,11.6,6.8,11.6,6.8C95,98,97,96,97,96c18-8.8,28.4-1.2,28.4-1.2c2,1.6-3.6,8.4-2,13.6
			s6.4,17.6,6.4,17.6c-2.4,1.6-2,12.4-2,12.4c16.8,23.2,7.2,21.2,7.2,21.2c-15.6-0.4-0.8,7.2-0.8,7.2c3.2,2,12,9.2,12,9.2
			c-2.8-1.2-4.4,4-4.4,4c4.8,4,2,8.8,2,8.8c-6,1.2-7.2,5.2-7.2,5.2c6.8,8-3.2,8.4-3.2,8.4c3.6,4.4-1.2,16.4-1.2,16.4
			c-4.8,0-11.2,5.6-11.2,5.6c2.4,4.8-8,10.4-8,10.4c-8.4,1.6-5.6,8.4-5.6,8.4c-8,6-10.4,22-10.4,22c-0.8,10.4-3.2,13.6,2,11.6
			c5.2-2,4.4-14.4,4.4-14.4c-4.8-15.6,38-31.6,38-31.6c4-1.6,4.8-6.8,4.8-6.8c2,0.4,10.8,8,10.8,8c7.6,11.2,8,2,8,2
			c1.2-3.6-0.4-9.6-0.4-9.6c6-21.6-8-28-8-28c-10-33.6,4-25.2,4-25.2c2.8,5.6,13.6,10.8,13.6,10.8l3.6-2.4
			c-1.6-4.8,6.8-10.8,6.8-10.8c2.8,6.4,8.8-1.6,8.8-1.6c3.6-24.4,16-10,16-10c4,1.2,5.2-5.6,5.2-5.6c3.6-10.4,0-24,0-24
			c3.6-0.4,13.2,5.6,13.2,5.6c2.8-3.6-6.4-20.4-2.4-18s8.4,4,8.4,4c0.8-2-9.2-14.4-9.2-14.4c-4.4-2.8-9.6-23.2-9.6-23.2
			c7.2,3.6-2.8-11.6-2.8-11.6c0-3.2,6-14.4,6-14.4c-0.8-6.8,0-6.4,0-6.4c2.8,1.2,10.8,2.8,4-3.6s0.8-11.2,0.8-11.2
			c4.4-2.8-9.2-2.4-9.2-2.4c-5.2-4.4-4.8-8.4-4.8-8.4c8,2-6.4-12.4-8.8-16c-2.4-3.6,7.2-8.8,7.2-8.8C220.6-4.8,209-8,209-8
			c-19.6,0.4-8.8-10.4-8.8-10.4c6,0.4,4.4-2,4.4-2c-5.2-1.2-14.8-7.6-14.8-7.6c-4-3.6-0.4-2.8-0.4-2.8c16.8,1.2-12-10-12-10
			c8,0-10-10.4-10-10.4c-2-1.6-5.2-9.2-5.2-9.2c-6-5.2-10.8-12-10.8-12c-0.4-4.4-5.2-9.2-5.2-9.2C134.6-95.2,129-94.8,129-94.8
			c-14.8-3.6-20-2.8-20-2.8l-52.8,4.4C29.8-80.4,37.6-59.4,37.6-59.4c6.4,8.4,15.6,4.6,15.6,4.6c4.6-6.2,16.2-4,16.2-4
			c20.4,3.2,17.8-0.4,17.8-0.4C84.8-63.8,68.6-70,68.4-70.6s-9-4-9-4C56.4-75.8,52-85,52-85c-3.2-3.4,12.6,2.4,12.6,2.4
			c-1.2,1,6.2,5,6.2,5c17.4-1,28,9.8,28,9.8c10.8,16.6,11,8.4,11,8.4c2.8-9.4-9-30.6-9-30.6c0.4-2,8.6,4.6,8.6,4.6
			c1.4-2,2.2,3.8,2.2,3.8c0.2,2.4,4,10.4,4,10.4c2.8,13,6.4,5.6,6.4,5.6l4.6,9.4C128-53.6,122-46,122-46c-0.2,2.8,0.6,2.6-5,10.2
			s-2.2,12-2.2,12c-1.4,6.6,7.4,6.2,7.4,6.2c2.6,2.2,6,2.2,6,2.2c1.8,2,4.2,1.4,4.2,1.4c1.6-3.8,7.8-1.8,7.8-1.8
			c1.4-2.4,9.6-2.8,9.6-2.8c1-2.6,1.4-4.2,4.8-4.8C158-24,133.4-67,133.4-67c6.4-0.8-1.8-13.2-1.8-13.2c-2.2-6.6,9.2,8,11.4,9.4
			s3.2,3.6,1.6,3.4s-3.4,2-2,2.2S157-50,160.4-39.8s9.4,14.2,15.6,20.2s5.4,30.2,5.4,30.2C181,19.4,187,30,187,30
			c2,3.8-2.2,22-2.2,22c-2,2.2-0.6,3-0.6,3c1,1.2,7.8,14.4,7.8,14.4c-1.8-0.2,1.8,3.4,1.8,3.4c5.2,6-1.2,3-1.2,3c-6-1.6,1,8.2,1,8.2
			c1.2,1.8-7.8-2.8-7.8-2.8c-9.2-0.6,2.4,6.6,2.4,6.6c8.6,7.2-2.8,2.8-2.8,2.8c-4.6-1.8-1.4,5-1.4,5c3.2,1.6,20.4,8.6,20.4,8.6
			c0.4,3.8-2.6,8.8-2.6,8.8c0.4,4-1.8,7.4-1.8,7.4c-1.2,8.2-1.8,9-1.8,9c-4.2,0.2-11.6,14-11.6,14c-1.8,2.6-12,14.6-12,14.6
			c-2,7-20-0.2-20-0.2c-6.6,3.4-4.6,0-4.6,0c-0.4-2.2,4.4-8.2,4.4-8.2c7-2.6,4.4-13.4,4.4-13.4c4-1.4-7.2-4.2-7-5.4s6-2.6,6-2.6
			c8-2,3.6-4.4,3.6-4.4c-0.6-4,2.4-9.6,2.4-9.6c11.6-0.8,0-17,0-17C153,89.6,152,83.8,152,83.8c12.6-8.2,4.4-20.6,4.6-24.2
			s1.4-25.2,1.4-25.2c-2-6.2-5-19.8-5-19.8c2.2-5.2,9.6-17.8,9.6-17.8c2.8-4.2,11.6-9,9.4-12s-10-1.2-10-1.2
			c-7.8-1.4-7.2,3.8-7.2,3.8c-1.6,1-2.4,6-2.4,6c-0.7,7.9-9.6,14.2-9.6,14.2c-11.2,6.2-2,10.2-2,10.2c6,6.6-3.8,6.8-3.8,6.8
			c-11-1.8-2.8,8.4-2.8,8.4C145,45.8,142,48.6,142,48.6c-10.2,1,2.4,10.2,2.4,10.2s-0.8-2-0.6-0.2s3.2,6,4,8s-3.2,2.2-3.2,2.2
			c0.6,9.6-14.8,5.4-14.8,5.4l-1.6,0.2c-1.6,0.2-12.8-0.6-18.6-2.8S97,69.4,97,69.4s-4,1.8-11.6,1.6c-7.6-0.2-15.6,2.6-15.6,2.6
			c-4.4-0.4,4.2-4.8,4.4-4.6s5.8-5.4-2.2-4.8c-21.8,1.6-32.6-8.6-32.6-8.6c-2-1.4-4.6-4.2-4.6-4.2c-10-2,1.4,12.4,1.4,12.4
			c1.2,1.4-0.2,2.4-0.2,2.4c-0.8-1.6-8.6-7-8.6-7C24.6,58.2,23.2,56.9,20.9,54.4L20.9,54.4z"/>
	</g>
	<g id="g466">
		<path id="path468" fill="#4C0000" d="M-3,42.8c0,0,11.6,5.6,14.2,8.4c2.6,2.8,16.6,14.2,16.6,14.2s-5.4-2-8-3.8s-13.4-10-13.4-10
			S2.6,45.6-3,42.8z"/>
	</g>
	<g id="g470">
		<path id="path472" fill="#99CC32" d="M-61,11.6c0.3-0.1-0.2-2.9-0.4-3.4c-1-2.7-10-4.2-10-4.2c-0.2,1.4-0.3,3-0.2,4.6
			C-71.6,8.6-66.7,14.1-61,11.6z"/>
	</g>
	<g id="g474">
		<path id="path476" fill="#659900" d="M-61,11.4c-0.4,0.2,0-2.7-0.2-3.2c-1-2.7-10.2-4.3-10.2-4.3c-0.2,1.4-0.3,3-0.2,4.6
			C-71.6,8.5-67.3,13.6-61,11.4z"/>
	</g>
	<g id="g478">
		<path id="path480" d="M-65.4,11.5c-0.6,0-1.1-1.1-1.1-2.5c0-1.4,0.5-2.5,1.1-2.5s1.1,1.1,1.1,2.5C-64.3,10.4-64.8,11.5-65.4,11.5
			L-65.4,11.5z"/>
	</g>
	<g id="g482">
		<path id="path484" d="M-65.4,9"/>
	</g>
	<g id="g486">
		<path id="path488" d="M-111,109.6c0,0-5.6,10,19.2,4c0,0,14-1.2,16.4-3.6c1.2,0.8,9.6,3.7,12.4,4.4c6.8,1.6,15.2-8.4,15.2-8.4
			s4.6-10.5,7.4-10.5s-0.4,1.6-0.4,1.6s-6.6,10.1-6.2,11.7c0,0-5.2,20-21.2,20.8c0,0-16.2,0.9-14.8,6.8c0,0,8.8-2.4,11.2,0
			c0,0,10.8-0.4,2.8,6l-6.8,11.6c0,0,0.1,3.9-10,0.4c-9.8-3.4-20.1-16.3-20.1-16.3S-121.9,123.6-111,109.6L-111,109.6z"/>
	</g>
	<g id="g490">
		<path id="path492" fill="#E59999" d="M-112.2,113.6c0,0-2,9.6,34.8-0.8l6.8,0.8c2.4,0.8,14.4,3.6,16.4,2.4c0,0-7.2,13.6-18.8,12
			c0,0-13.2,1.6-12.8,6.4c0,0,4,7.2,8.8,9.6c0,0,2.8,2.4,2.4,5.6s-3.2,4.8-5.2,5.6s-5.2-2.4-6.8-2.4s-10-6.4-14.4-11.2
			c-4.4-4.8-12.8-16.8-12.4-19.6S-112.2,113.6-112.2,113.6L-112.2,113.6z"/>
	</g>
	<g id="g494">
		<path id="path496" fill="#B26565" d="M-109,131.1c2.6,3.9,5.8,8.1,8,10.6c4.4,4.8,12.8,11.2,14.4,11.2s4.8,3.2,6.8,2.4
			s4.8-2.4,5.2-5.6S-77,144-77,144c-3.1-1.5-5.8-5-7.4-7.4c0,0,0.2,2.6-5,1.8s-10.4-3.6-12-6.8s-4-5.6-2.4-2s4,7.2,5.6,7.6
			c1.6,0.4,1.2,1.6-1.2,1.2c-2.4-0.4-5.2-0.8-9.6-6V131.1z"/>
	</g>
	<g id="g498">
		<path id="path500" fill="#992600" d="M-111.6,110c0,0,1.8-13.6,3-17.6c0,0-0.8-6.8,1.6-11s4.4-10.4,7.4-15.8c3-5.4,3.2-9.4,7.2-11
			s10-10.2,12.8-11.2s2.6-0.2,2.6-0.2s6.8-14.8,20.4-10.8c0,0-16.2-2.8-0.4-12.2c0,0-4.8,1.1-1.5-5.9c2.2-4.7,1.7,2.1-9.3,13.9
			c0,0-5,8.6-10.2,11.6s-17.2,10-18.4,13.8c-1.2,3.8-4.4,9.6-6.4,11.2c-2,1.6-4.8,5.8-5.2,9.2c0,0-1.2,4-2.6,5.2s-1.6,4.4-1.6,6.4
			s-2,4.8-1.8,7.2c0,0,0.8,19,0.4,21L-111.6,110L-111.6,110z"/>
	</g>
	<g id="g502">
		<path id="path504" fill="#FFFFFF" d="M-120.2,114.6c0,0-2-1.4-6.4,4.6c0,0,7.3,33,7.3,34.4c0,0,1.1-2.1-0.2-9.3
			s-2.2-19.9-2.2-19.9L-120.2,114.6L-120.2,114.6z"/>
	</g>
	<g id="g506">
		<path id="path508" fill="#992600" d="M-98.6,54c0,0-17.6,3.2-17.2,32.4l-0.8,24.8c0,0-1.2-25.6-2.4-27.2s2.8-12.8-0.4-6.8
			c0,0-14,14-6,35.2c0,0,1.5,3.3-1.5-1.3c0,0-4.6-12.6-3.5-19c0,0,0.2-2.2,2.1-5c0,0,8.6-11.7,11.3-14c0,0,1.8-14.4,17.2-19.6
			C-99.8,53.5-94.1,51.2-98.6,54L-98.6,54z"/>
	</g>
	<g id="g510">
		<path id="path512" d="M40.8-12.2c0.7-0.4,0.7-1.3,1.2-1.5c1.1-0.3,1.3-1.4,1.8-2.2c0.9-1.3,1.1-2.9,1.6-4.3c0.3-0.7,0.3-1.7,0-2.3
			c-1.2-2.5-1.9-4.9-3.3-7.4c-0.3-0.5-0.5-1.2-0.7-1.8c-0.5-1.4-1.7-2.4-2.6-3.7c-0.3-0.4,0.2-1.4-0.5-1.5c-0.9-0.1-2.3-0.7-2.6,0.3
			c-0.6,2.6,0.4,5.1,1.4,7.6c-0.8,0.7-0.4,1.6-0.3,2.4c0.7,3.6-0.5,7-1.2,10.4c0,0.1,0.3,0.3,0.3,0.4c-1.2,2.7-2.7,5.1-4.5,7.5
			c-0.8,1-1.6,1.9-2.1,3c-0.4,0.8-0.8,1.8-0.5,2.7C25.4,0.2,23.1,4,20.5,7.9C20,8.6,20.3,9.8,20.9,10c0.8,0.4,1.8-0.6,2.2-1.5
			c0.4-0.7,0.7-1.3,1.2-2c0.1-0.2,0-0.6,0.1-0.7c2.6-2.3,4.3-5.3,6.8-7.7c2-0.3,3.5-1.3,5.2-2.3c0.3-0.2,0.8,0.1,1.1-0.1
			c1.8-1.2,1.8-3.2,1.9-5.1C39.5-10.3,39.7-11.6,40.8-12.2z"/>
	</g>
	<g id="g514">
		<path id="path516" d="M32-16.7c0.1-0.1,0-0.5,0.1-0.7c0.2-0.3,0.6-0.5,0.7-0.8c0.1-0.2-0.1-0.6,0.1-0.7c2.3-2.4,2.6-5.5,1.6-8.4
			c1-0.6,1.1-1.9,0.7-2.7c-0.9-1.7-1-3.6-2-5.2c-0.8-1.3-2.4-2.5-3.8-1.2c-0.4,0.4-0.7,1.2-0.5,1.9c0.1,0.2,0.3,0.3,0.3,0.4
			c-0.1,0.3-0.7,0.5-0.7,0.8c0,1.5-1,3-0.4,4.3c0.8,1.6,1.6,3.5,2.3,5.3c-1.2,2.1-0.2,4.6-2,6.4c-0.1,0.1-0.1,0.5,0,0.7
			c0.3,0.5,0.7,0.9,1.2,1.2c0.2,0.1,0.5,0.1,0.8,0C31-15.8,31.4-16.3,32-16.7z"/>
	</g>
	<g id="g518">
		<path id="path520" d="M94.8-27c1.4,1.8,1.7,4.6-0.4,6c0.6,3.3,3.9,1.3,6,0.8c-0.1-0.4,0.1-0.7,0.4-0.7c1.1,0,1.7-1,2.8-0.9
			c0.4-1.6,2.1-2.3,2.7-3.6c1.7-3.7,1.1-8-1.4-11.2c-0.2-0.3,0-0.8-0.1-1.1c-0.8-2.2-2.8-2.5-4.8-3.2c-1.2-3.9-1.8-7.9-3.6-11.6
			c-1.6-0.3-2.3-2-3.6-2.7c-1.3-0.7-1.9,0.9-1.9,1.9c0,0.2,0.5,0.4,0.3,0.8c-0.1,0.2-0.3,0.3-0.3,0.4c0,0.1,0.2,0.3,0.4,0.4
			c-0.9,0.8-2.3,1.3-2.6,2.4c-1,3.7,1.6,6.8,3.3,10c0.6,1.1-0.1,2.4-0.9,3.6c-0.4,0.7-0.3,1.8-0.1,2.7C91.6-30.7,93.2-29,94.8-27
			L94.8-27z"/>
	</g>
	<g id="g522">
		<path id="path524" d="M57.6-8.6c-1.5,1.9-4.9,4.4-2,6.3c0.2,0.1,0.6,0.1,0.7,0c2-1.6,4-2.5,6.5-3.1c0.1,0,0.4,0.4,0.8,0.3
			c1.6-0.7,3.6-0.6,4.8-2c3.8,0.2,7.3-0.9,10.7-2.2c1.2-0.4,2.4-1,3.6-1.5c1.4-0.6,2.6-1.5,3.7-2.6c0.1-0.1,0.5,0,0.8,0
			c0-0.9,0.9-1,1.2-1.6c0.1-0.2-0.1-0.6,0.1-0.7c2.1-1.6,3.1-3.6,1.9-6c-0.3-0.6-0.5-1.2-1.1-1.7c-1.1-0.9-2.2-0.1-3.2-0.4
			c-0.2,0.6-0.9,0.5-1.3,0.7c-0.9,0.4-2.2-0.1-3.1,0.3c-1.4,0.7-2.6,0.9-4,1.2c-0.3,0.1-1.1,0-1.3,0.6c-0.1-0.1-0.3-0.4-0.4-0.3
			c-1.9,0.4-3.2,0.6-4.5,2.3c-0.1,0.1-0.5,0-0.7,0.1c-1,0.8-1.4,2-2.5,2.7c-0.2,0.1-0.6,0-0.7,0.1c-0.6,0.4-1,1.1-1.7,1.5
			c-0.3,0.2-0.7-0.1-0.7-0.4c0.2-1.9,0.9-3.7,0.3-5.6c2.1-2.5,4.6-4.5,6.4-7.2c0-2.2,0.7-4.3,0.6-6.4c0-0.2-0.3-0.9-0.4-1.3
			c-0.3-0.9,0.6-1.9-0.3-2.6c-1.4-1.2-2.7-0.3-3.5,1.1c-1.8,0.4-3.9,1.1-5.5-0.2c-1-0.8-1.6-1.7-2.4-2.7c-1-1.3-0.7-2.7-0.6-4.3
			c0-0.1-0.3-0.3-0.3-0.4c0-0.1,0.2-0.3,0.4-0.4c-0.7-0.6-1-1.7-2-2c0.3-1.1-0.4-2-1.2-2.3c-2-0.7-3.7,1.2-5.6,1.3
			c-0.5,0-1-1-1.6-1.3c-0.4-0.2-1.1-0.2-1.5,0c-0.7,0.5-1.3,0.6-2,0.8c-1.6,0.4-2.9,1.5-4.4,2.4c-1.5,0.9-2.4,2.3-3.5,3.6
			c-0.9,1.2-1.1,3.6,0.3,4.1c1.8,0.7,3.1-2.1,5.1-1.7c0.3,0.1,0.5,0.4,0.4,0.8c0.4,0.1,0.6-0.1,0.8-0.4c0.9,1,2,1.4,3,2.2
			c1,0.9,2.7,0.5,3.7,1.5c1.5,1.5,1,4.2,2.9,5.5c-0.6,1.3-1.2,2.6-1.5,4c-0.3,1.2,0.7,2.4,1.9,2.3c1.3-0.1,1.5-0.9,2-1.9
			c0.3,0.3,0.7,0.6,0.7,0.8C57-23,56-21,55.6-18.6c-0.1,0.3-0.4,0.5-0.8,0.4c-0.5,4.1-4.5,6.5-7.1,9.7c-0.4,0.5-0.4,1.8,0,2.2
			C49.1-5,51.1-6.5,52.8-7c0.2-1.2,1.1-2.1,2.4-2.1c0.3,0,0.5-0.5,0.8-0.7c0.3-0.1,0.8,0.1,1.1-0.1c1.7-1.2,3.1-2.3,4.9-3.5
			c0.2-0.1,0.5,0,0.8-0.1c0.3-0.2,0.5-0.5,0.8-0.7c0.3-0.2,0.6,0.1,0.8,0.4c-0.6,0.3-0.7,1.3-1.2,1.5c-0.8,0.3-1.3,0.8-2,1.2
			c-0.3,0.2-1-0.1-1.1,0.1C59.5-9.9,58.3-9.5,57.6-8.6L57.6-8.6z"/>
	</g>
	<g id="g526">
		<path id="path528" d="M2.2-58c0,0-9.2-2.9-20.4,22.8c0,0-2.4,5.2-4.8,7.2s-13.6,5.6-15.6,9.6L-49-2.4c0,0,14.8-16,18-18.4
			c0,0,8-8.4,4.8-1.6c0,0-14,10.8-12.8,20c0,0-5.6,14.4-6.4,16.4c0,0,16-32,18.4-33.2s3.6-1.2,2.4,2.4c-1.2,3.6-1.6,20-4.4,22
			c0,0,8-20.4,7.2-23.6c0,0,3.2-3.6,5.6,1.6l-1.2,16l4.4,12c0,0-2.4-11.2-0.8-26.8c0,0-2-10.4,2-4.8S1.8-8.8,1.8-4
			c0,0-5.2-17.6-14.4-22.4l-4,6l-1.2-2c0,0-3.6-0.8,0.8-7.6s4-7.6,4-7.6s6.4,7.2,8,7.2c0,0,13.2-7.6,14.4,16.8
			c0,0,6.8-14.4-2.4-21.2c0,0-14.8-2-13.6-7.2l7.2-12.4c3.6-5.2,2-2.4,2-2.4L2.2-58z"/>
	</g>
	<g id="g530">
		<path id="path532" d="M-17.8-41.6l-16,5.2l-7.2,9.6c0,0,17.2-10,21.2-11.2S-17.8-41.6-17.8-41.6z"/>
	</g>
	<g id="g534">
		<path id="path536" d="M-57.8-35.2c0,0-2,1.2-2.4,4s-2.8,3.2-2,6s2.8,5.2,2.8,1.2s1.6-6,2.4-7.2C-56.2-32.4-54.6-36.8-57.8-35.2z"
			/>
	</g>
	<g id="g538">
		<path id="path540" d="M-66.6,26c0,0-8.4-4-11.6-7.6s-2.7,1.6-7.6,1.2c-5.8-0.4-4.8-16.4-4.8-16.4l-4,7.6c0,0-1.2,14.4,6.8,12
			c3.9-1.2,5.2,0.4,3.6,1.2s5.6,1.2,2.8,2.8c-2.8,1.6,11.6-3.6,9.2,6.8C-72.2,33.6-66.6,26-66.6,26z"/>
	</g>
	<g id="g542">
		<path id="path544" d="M-79.2,40.4c0,0-15.4,4.4-19-5.2c0,0-4.8,2.4-2.6,5.4s3.4,3.4,3.4,3.4s5.4,1.2,4.8,2s-3,4.2-3,4.2
			S-85.4,44.2-79.2,40.4L-79.2,40.4z"/>
	</g>
	<g id="g546">
		<path id="path548" fill="#FFFFFF" d="M149.2,118.6c-0.4,2.1-2.1,2.9-4,3.6c-1.9-1-4.5-4.1-6.4-2c-0.5-0.5-1.3-0.5-1.6-1.2
			c-0.5-0.9-0.2-1.9-0.5-2.7c-0.6-1.3-1.3-2.6-1.1-4.1c1.8-0.7,2.4-2.6,1.9-4.4c-0.1-0.3-0.5-0.4-0.3-0.8c0.2-0.3,0.5-0.6,0.8-0.8
			c-0.1,0.1-0.3,0.4-0.4,0.3c-0.6-0.1-0.5-0.8-0.4-1.1c0.6-1.8,2.6-2,3.9-0.8c0.3-0.6,0.8-0.4,1.2-0.4c-0.1-0.6,0.4-1.1,0.6-1.5
			c0.5-1.1,2.1,0,2.9-0.6c1.1-0.8,2.1-1.5,3.2-0.9c1.8,1,3.5,2.2,4.7,4c0.6,0.8,0.8,2.1,0.8,3.1c0,0.7-1.4,0.3-1.8,1.2
			c-0.6,1.8,1.2,2.3,1.9,3.6c0.2,0.3-0.1,0.7-0.4,0.8c-0.4,0.1-1.2-0.1-1.1,0.4C154.3,117.4,151.6,118,149.2,118.6L149.2,118.6z"/>
	</g>
	<g id="g550">
		<path id="path552" fill="#FFFFFF" d="M139.6,138.2c0-1.7-1.6-3.5-0.4-5.2c0.1,0.1,0.3,0.4,0.4,0.4c0.1,0,0.3-0.2,0.4-0.4
			c1.5,2.2,5.1,3.1,5,6c0,0.4-1.1,1.4-0.2,2c-1.8,1.4-1.9,3.7-2.8,5.6c-1.2-0.3-2.4-0.6-3.6-1.2c0.4-1.5,0.2-3.2,1.1-4.5
			C139.9,140.2,139.6,139.1,139.6,138.2L139.6,138.2z"/>
	</g>
	<g id="g554">
		<path id="path556" fill="#CCCCCC" d="M-26.6,129.2c0,0-16.9,10.1-2.8-5.2c8.8-9.6,18.8-15.2,18.8-15.2s10.4-4.4,14-5.6
			s18.8-6.4,22-6.8S38.2,92,45,96s14.8,8.4,14.8,8.4s-16.4-8.4-20-6c-3.6,2.4-10.8,2-16.8,5.2c0,0-14.8,4.4-18,6.4
			s-13.6,13.6-15.2,12.8s0.4-1.2,1.6-4s-0.8-4.4-8.8,2S-26.6,129.2-26.6,129.2z"/>
	</g>
	<g id="g558">
		<path id="path560" d="M-19.2,123.2c0,0,1.4-13,9.9-11.4c0,0,8.2-4.2,10.9-6.1c0,0,8.1-1.7,9.4-2.3c18.5-8.7,33.2-4.2,33.7-5.3
			c0.5-1.1,20.2,6,23.8,10.1c0.4,0.4-10.2-5.6-19.9-7.5c-8.3-1.6-29.9,0.2-40.8,5.8c-3,1.5-11.9,7.3-14.4,7.2
			S-19.2,123.2-19.2,123.2L-19.2,123.2z"/>
	</g>
	<g id="g562">
		<path id="path564" fill="#CCCCCC" d="M-23,148.8c0,0-15.2-2.4,1.6-4c0,0,18-2,22-7.2c0,0,13.6-9.2,16.4-9.6
			c2.8-0.4,32.8-7.6,33.2-10s6-2.4,7.6-1.6s0.8,2-2,2.8s-34,17.2-40.4,18.4s-18,8.8-22.8,10S-23,148.8-23,148.8z"/>
	</g>
	<g id="g566">
		<path id="path568" d="M-3.5,141.4c0,0-8.6-0.8,0-1.6c0,0,8.8-3.4,10.9-6.1c0,0,7-4.7,8.4-4.9c1.4-0.2,15.4-3.9,15.6-5.1
			s34.3-13.8,38.7-10.6c2.9,2.1-7,0.4-16.6,4.8c-1.4,0.6-35.2,15.2-38.5,15.8c-3.3,0.6-9.2,4.5-11.7,5.1
			C0.9,139.4-3.5,141.4-3.5,141.4L-3.5,141.4z"/>
	</g>
	<g id="g570">
		<path id="path572" d="M-11.4,143.6c0,0,5.2-0.4,4,1.2s-3.6,0.8-3.6,0.8L-11.4,143.6z"/>
	</g>
	<g id="g574">
		<path id="path576" d="M-18.6,145.2c0,0,5.2-0.4,4,1.2s-3.6,0.8-3.6,0.8L-18.6,145.2z"/>
	</g>
	<g id="g578">
		<path id="path580" d="M-29,146.8c0,0,5.2-0.4,4,1.2s-3.6,0.8-3.6,0.8L-29,146.8z"/>
	</g>
	<g id="g582">
		<path id="path584" d="M-36.6,147.6c0,0,5.2-0.4,4,1.2c-1.2,1.6-3.6,0.8-3.6,0.8L-36.6,147.6z"/>
	</g>
	<g id="g586">
		<path id="path588" d="M1.8,108l3.2,1.6c-1.2,1.6-4.4,1.2-4.4,1.2L1.8,108L1.8,108z"/>
	</g>
	<g id="g590">
		<path id="path592" d="M-8.2,113.6c0,0,6.5-2.1,4,1.2c-1.2,1.6-3.6,0.8-3.6,0.8L-8.2,113.6z"/>
	</g>
	<g id="g594">
		<path id="path596" d="M-19.4,118.4c0,0,5.2-0.4,4,1.2s-3.6,0.8-3.6,0.8L-19.4,118.4z"/>
	</g>
	<g id="g598">
		<path id="path600" d="M-27,124.4c0,0,5.2-0.4,4,1.2c-1.2,1.6-3.6,0.8-3.6,0.8L-27,124.4z"/>
	</g>
	<g id="g602">
		<path id="path604" d="M-33.8,129.2c0,0,5.2-0.4,4,1.2s-3.6,0.8-3.6,0.8L-33.8,129.2z"/>
	</g>
	<g id="g606">
		<path id="path608" d="M5.3,135.6c0,0,6.9-0.5,5.3,1.6c-1.6,2.1-4.8,1.1-4.8,1.1L5.3,135.6z"/>
	</g>
	<g id="g610">
		<path id="path612" d="M15.7,130.8c0,0,6.9-0.5,5.3,1.6c-1.6,2.1-4.8,1.1-4.8,1.1S15.7,130.8,15.7,130.8z"/>
	</g>
	<g id="g614">
		<path id="path616" d="M26.5,126.4c0,0,6.9-0.5,5.3,1.6c-1.6,2.1-4.8,1.1-4.8,1.1L26.5,126.4L26.5,126.4z"/>
	</g>
	<g id="g618">
		<path id="path620" d="M36.9,121.6c0,0,6.9-0.5,5.3,1.6c-1.6,2.1-4.8,1.1-4.8,1.1L36.9,121.6L36.9,121.6z"/>
	</g>
	<g id="g622">
		<path id="path624" d="M9.3,103.6c0,0,6.9-0.5,5.3,1.6c-1.6,2.1-5.6,1.9-5.6,1.9S9.3,103.6,9.3,103.6z"/>
	</g>
	<g id="g626">
		<path id="path628" d="M19.3,100.4c0,0,6.9-0.5,5.3,1.6c-1.6,2.1-6,1.9-6,1.9S19.3,100.4,19.3,100.4z"/>
	</g>
	<g id="g630">
		<path id="path632" d="M-3.4,140.4c0,0,5.2-0.4,4,1.2s-3.6,0.8-3.6,0.8L-3.4,140.4z"/>
	</g>
	<g id="g634">
		<path id="path636" fill="#992600" d="M-76.6,41.2c0,0-4.4,8.8-4.8,12c0,0,0.8-8.8,2-10.8S-76.6,41.2-76.6,41.2z"/>
	</g>
	<g id="g638">
		<path id="path640" fill="#992600" d="M-95,55.2c0,0-3.2,14.4-2.8,17.2c0,0-1.2-11.6-0.8-12.8S-95,55.2-95,55.2L-95,55.2z"/>
	</g>
	<g id="g642">
		<path id="path644" fill="#CCCCCC" d="M-74.2-19.4l-0.2,3.2l-2.2,0.2c0,0,14.2,12.6,14.8,20.2C-61.8,4.2-61-4-74.2-19.4L-74.2-19.4
			z"/>
	</g>
	<g id="g646">
		<path id="path648" d="M-70.2-18.1c-0.4-0.4-0.2-1.2-0.6-1.4c-0.8-0.5,1.3-0.6,1.1-1.3c-0.4-1.2-0.2-1.2-0.3-2.5
			c-0.1-0.6,0.5-2.1,0.9-2.6c1.4-1.7,0.1-4.6,1.8-6.1c0.3-0.3,0.7-0.8,1-1.3c0.7-1,1.8-1.5,2.8-2.3c0.3-0.3,0.1-1.1,0.7-1
			c0.7,0.1,2,0,1.9,0.8c-0.1,2.1-1.4,3.8-2.7,5.5c0.5,0.7,0,1.3-0.3,1.9c-1.3,2.6-1.1,5.5-1.3,8.3c0,0.1-0.3,0.2-0.3,0.2
			c0.4,2.3,0.9,4.5,1.8,6.8c0.4,0.9,0.8,1.8,1,2.8c0.1,0.7,0.2,1.5-0.2,2.2c2,2.9,0.7,5.5,1.9,9.1c0.2,0.6,1.9,2.5,1.4,2.4
			c-2.5-0.9-2.6-1.3-2.8-2c-0.1-0.6-0.5-2-0.7-2.6c-0.1-0.2-0.2-2-0.3-2.2c-1.5-2.4-0.2-2.2-1.5-4.6c-1.4-0.7-2.4-1.8-3.5-2.9
			c-0.2-0.2,0.9-0.9,0.8-1.1c-1.1-1.3-2.2-2.1-1.9-3.5C-69.6-16.4-69.5-17.4-70.2-18.1L-70.2-18.1z"/>
	</g>
	<g id="g650">
		<path id="path652" d="M-73.8-16.4c0,0,0.4,6.8,2.8,8.4s1.2,0.8-2-0.4s-2-2-2-2S-77.8-10-75.4-8s6,4.4,4.4,4.4s-9.2-4-9.2-6.8
			s-1-6.9-1-6.9s1.1-0.8,5.9-0.7C-75.3-18-73.9-17.3-73.8-16.4L-73.8-16.4z"/>
	</g>
	<g id="g654">
		<path id="path656" fill="#FFFFFF" stroke="#000000" stroke-width="0.1" d="M-74.6,2.2c0,0-8.5-2.8-27,0.6c0,0,9-2.1,27.8,0.2
			C-63.5,4.3-74.6,2.2-74.6,2.2L-74.6,2.2z"/>
	</g>
	<g id="g658">
		<path id="path660" fill="#FFFFFF" stroke="#000000" stroke-width="0.1" d="M-72.5,2.1c0,0-8.2-3.5-27-1.7c0,0,9.2-1.3,27.7,2.6
			C-61.6,5.1-72.5,2.1-72.5,2.1z"/>
	</g>
	<g id="g662">
		<path id="path664" fill="#FFFFFF" stroke="#000000" stroke-width="0.1" d="M-70.7,2.2c0,0-8-4.1-26.7-3.7c0,0,9.2-0.6,27.4,4.7
			C-60.1,6-70.7,2.2-70.7,2.2L-70.7,2.2z"/>
	</g>
	<g id="g666">
		<path id="path668" fill="#FFFFFF" stroke="#000000" stroke-width="0.1" d="M-69.4,2.4c0,0-6.8-4.3-23.7-5.4c0,0,8.3,0.2,24.2,6.3
			C-60.2,6.7-69.4,2.4-69.4,2.4z"/>
	</g>
	<g id="g670">
		<path id="path672" fill="#FFFFFF" stroke="#000000" stroke-width="0.1" d="M45.8,13c0,0-0.9,0.6-0.7-0.5
			c0.2-1.2,28.4-14.4,32-14.1C77.2-1.7,46.9,11.5,45.8,13z"/>
	</g>
	<g id="g674">
		<path id="path676" fill="#FFFFFF" stroke="#000000" stroke-width="0.1" d="M42.4,13.6c0,0-0.9,0.7-0.8-0.5S68.9-3.4,72.5-3.5
			C72.5-3.5,43.4,12.1,42.4,13.6z"/>
	</g>
	<g id="g678">
		<path id="path680" fill="#FFFFFF" stroke="#000000" stroke-width="0.1" d="M39.2,15c0,0-0.8,0.8-0.8-0.4C38.4,13.3,58.2-2.1,68-4
			C68-4,50,4.1,39.2,15z"/>
	</g>
	<g id="g682">
		<path id="path684" fill="#FFFFFF" stroke="#000000" stroke-width="0.1" d="M36.3,16.8c0,0-0.7,0.7-0.7-0.4
			c0-1.1,17.9-15,26.7-16.7C62.3-0.3,46.1,7.1,36.3,16.8z"/>
	</g>
	<g id="g686">
		<path id="path688" fill="#CCCCCC" d="M4.6,164.8c0,0-15.2-2.4,1.6-4c0,0,18-2,22-7.2c0,0,13.6-9.2,16.4-9.6s19.2-4,19.6-6.4
			c0.4-2.4,6.4-4.8,8-4s1.6,10-1.2,10.8s-21.6,8-28,9.2s-18,8.8-22.8,10S4.6,164.8,4.6,164.8z"/>
	</g>
	<g id="g690">
		<path id="path692" d="M77.6,127.4c0,0-3,1.6-4.2,4.2c0,0-6.4,10.6-20.6,13.8c0,0-23,9-30.8,11c0,0-13.4,5-20.8,4.2
			c0,0-7,0.2-0.8,1.8c0,0,20.2-2,23.6-3.8c0,0,15.6-5.2,18.6-7.8s21.2-7.6,23.4-9.6S78,130.8,77.6,127.4L77.6,127.4z"/>
	</g>
	<g id="g694">
		<path id="path696" d="M18.9,158.9c0,0,5.2-0.2,4.1,1.3s-3.6,0.7-3.6,0.7L18.9,158.9z"/>
	</g>
	<g id="g698">
		<path id="path700" d="M11.7,160.3c0,0,5.2-0.2,4.1,1.3c-1.2,1.6-3.6,0.7-3.6,0.7L11.7,160.3z"/>
	</g>
	<g id="g702">
		<path id="path704" d="M1.3,161.5c0,0,5.2-0.2,4.1,1.3s-3.6,0.7-3.6,0.7L1.3,161.5z"/>
	</g>
	<g id="g706">
		<path id="path708" d="M-6.4,162.1c0,0,5.2-0.2,4.1,1.3s-3.6,0.7-3.6,0.7L-6.4,162.1z"/>
	</g>
	<g id="g710">
		<path id="path712" d="M35.4,151.5c0,0,7-0.3,5.4,1.8c-1.5,2.1-4.8,0.9-4.8,0.9L35.4,151.5L35.4,151.5z"/>
	</g>
	<g id="g714">
		<path id="path716" d="M45.7,147.1c0,0,6-3.3,5.4,1.8c-0.3,2.6-4.8,0.9-4.8,0.9L45.7,147.1L45.7,147.1z"/>
	</g>
	<g id="g718">
		<path id="path720" d="M54.9,144.3c0,0,7.2-3.7,5.4,1.8c-0.8,2.4-4.8,0.9-4.8,0.9L54.9,144.3z"/>
	</g>
	<g id="g722">
		<path id="path724" d="M64.4,139.5c0,0,4.4-4.9,5.4,1.8c0.4,2.5-4.8,0.9-4.8,0.9L64.4,139.5L64.4,139.5z"/>
	</g>
	<g id="g726">
		<path id="path728" d="M26.8,156c0,0,5.2-0.2,4.1,1.3c-1.2,1.6-3.6,0.7-3.6,0.7L26.8,156z"/>
	</g>
	<g id="g730">
		<path id="path732" fill="#FFFFFF" stroke="#000000" stroke-width="0.1" d="M62.4,34.6c0,0-0.7,0.7-0.7-0.4
			c0-1.1,17.5-14.3,26.3-15.7C88,18.5,71.9,25.2,62.4,34.6z"/>
	</g>
	<g id="g734">
		<path id="path736" d="M65.4,98.4c0,0,22,22.4,31.2,26c0,0,9.2,11.2,5.2,37.2c0,0-3.2,7.6-6.4-13.2c0,0,3.2-25.2-8-9.2
			c0,0-8.4-9.9-2-9.6c0,0,3.2,2,3.6,0.4s-7.6-15.2-24.8-29.6S65.4,98.4,65.4,98.4L65.4,98.4z"/>
	</g>
	<g id="g738">
		<path id="path740" fill="#FFFFFF" stroke="#000000" stroke-width="0.1" d="M7,137.2c0,0-0.2-1.8,1.6-1s96,7,127.6,31
			C136.2,167.2,91,144,7,137.2z"/>
	</g>
	<g id="g742">
		<path id="path744" fill="#FFFFFF" stroke="#000000" stroke-width="0.1" d="M17.4,132.8c0,0-0.2-1.8,1.6-1s138.4-0.2,162,32.2
			C181,164,159,138.8,17.4,132.8L17.4,132.8z"/>
	</g>
	<g id="g746">
		<path id="path748" fill="#FFFFFF" stroke="#000000" stroke-width="0.1" d="M29,128.8c0,0-0.2-1.8,1.6-1
			c1.8,0.8,175.2-12.2,198.8,20.2C229.4,148,219.8,122.4,29,128.8L29,128.8z"/>
	</g>
	<g id="g750">
		<path id="path752" fill="#FFFFFF" stroke="#000000" stroke-width="0.1" d="M39,124c0,0-0.2-1.8,1.6-1s124-37.8,147.6-5.4
			C188.2,117.6,174.8,93,39,124L39,124z"/>
	</g>
	<g id="g754">
		<path id="path756" fill="#FFFFFF" stroke="#000000" stroke-width="0.1" d="M-19,146.8c0,0-0.2-1.8,1.6-1s19.6,3,21.6,41.8
			C4.2,187.6-3,145.6-19,146.8z"/>
	</g>
	<g id="g758">
		<path id="path760" fill="#FFFFFF" stroke="#000000" stroke-width="0.1" d="M-27.8,148.4c0,0-0.2-1.8,1.6-1s16-3.8,13.2,35
			C-13,182.4-11.8,147.2-27.8,148.4z"/>
	</g>
	<g id="g762">
		<path id="path764" fill="#FFFFFF" stroke="#000000" stroke-width="0.1" d="M-35.8,148.8c0,0-0.2-1.8,1.6-1s17.2,1.4,4.8,23.8
			C-29.4,171.6-19.8,147.6-35.8,148.8z"/>
	</g>
	<g id="g766">
		<path id="path768" fill="#FFFFFF" stroke="#000000" stroke-width="0.1" d="M11.5,104.5c0,0-0.4,2,1.1,0.8
			c16.1-12.6,48.5-71.5,104.2-77.2C116.8,28.1,78.5,16,11.5,104.5L11.5,104.5z"/>
	</g>
	<g id="g770">
		<path id="path772" fill="#FFFFFF" stroke="#000000" stroke-width="0.1" d="M22.7,102.7c0,0-1.4-1.2,0.5-1.8
			c1.9-0.6,114.3-73.1,153.6-65.2C176.8,35.7,149.7,28.2,22.7,102.7L22.7,102.7z"/>
	</g>
	<g id="g774">
		<path id="path776" fill="#FFFFFF" stroke="#000000" stroke-width="0.1" d="M1.9,108.8c0,0-0.5,1.6,1.2,0.6
			c9-5.1,12.6-62.3,56.2-63.6C59.3,45.8,26.8,31.1,1.9,108.8L1.9,108.8z"/>
	</g>
	<g id="g778">
		<path id="path780" fill="#FFFFFF" stroke="#000000" stroke-width="0.1" d="M-18,119.8c0,0-1.1,1.3,0.9,1
			c10.2-1.3,31.7-42.6,76.1-37.5C58.9,83.3,27,69-18,119.8L-18,119.8z"/>
	</g>
	<g id="g782">
		<path id="path784" fill="#FFFFFF" stroke="#000000" stroke-width="0.1" d="M-6.8,113.7c0,0-0.8,1.5,1.1,0.8
			c9.8-3.3,22.9-47.9,67.5-51.4C61.7,63.1,27.6,55.1-6.8,113.7z"/>
	</g>
	<g id="g786">
		<path id="path788" fill="#FFFFFF" stroke="#000000" stroke-width="0.1" d="M-25.1,124.9c0,0-0.9,1,0.7,0.8
			c8.3-1.1,25.6-34.5,61.6-30.4C37.3,95.4,11.4,83.7-25.1,124.9z"/>
	</g>
	<g id="g790">
		<path id="path792" fill="#FFFFFF" stroke="#000000" stroke-width="0.1" d="M-32.7,130.8c0,0-1,1.1,0.6,0.9
			c4.2-0.3,34.8-33.4,53.3-17.9C21.2,113.9,9.2,95.1-32.7,130.8z"/>
	</g>
	<g id="g794">
		<path id="path796" fill="#FFFFFF" stroke="#000000" stroke-width="0.1" d="M36.9,98.9c0,0-1.2-1.4,0.7-1.7
			c1.9-0.4,122.6-58.1,160.6-45.2C198.2,51.9,172.2,41.1,36.9,98.9L36.9,98.9z"/>
	</g>
	<g id="g798">
		<path id="path800" fill="#FFFFFF" stroke="#000000" stroke-width="0.1" d="M3.4,163.2c0,0-0.2-1.8,1.6-1s17.2,1.4,4.8,23.8
			C9.8,186,19.4,162,3.4,163.2z"/>
	</g>
	<g id="g802">
		<path id="path804" fill="#FFFFFF" stroke="#000000" stroke-width="0.1" d="M13.8,161.6c0,0-0.2-1.8,1.6-1s19.6,3,21.6,41.8
			C37,202.4,29.8,160.4,13.8,161.6z"/>
	</g>
	<g id="g806">
		<path id="path808" fill="#FFFFFF" stroke="#000000" stroke-width="0.1" d="M20.6,160c0,0-0.2-1.8,1.6-1s26.4,4.2,50,36.6
			C72.2,195.6,36.6,158.8,20.6,160z"/>
	</g>
	<g id="g810">
		<path id="path812" fill="#FFFFFF" stroke="#000000" stroke-width="0.1" d="M28.2,158c0,0-0.4-1.8,1.5-1.2
			c1.9,0.6,22.3-1.4,60.4,32.8C90.1,189.6,43.9,154.7,28.2,158z"/>
	</g>
	<g id="g814">
		<path id="path816" fill="#FFFFFF" stroke="#000000" stroke-width="0.1" d="M38.6,153.6c0,0-0.4-1.8,1.5-1.2
			c1.9,0.6,36.7,5.1,88.4,40C128.5,192.4,54.3,150.3,38.6,153.6z"/>
	</g>
	<g id="g818">
		<path id="path820" fill="#FFFFFF" stroke="#000000" stroke-width="0.1" d="M-1.8,142c0,0-0.2-1.8,1.6-1s55.2,3.4,85.6,30.2
			C85.4,171.2,50.5,146.4-1.8,142z"/>
	</g>
	<g id="g822">
		<path id="path824" fill="#FFFFFF" stroke="#000000" stroke-width="0.1" d="M-11.8,146c0,0-0.2-1.8,1.6-1s26.4,4.2,50,36.6
			C39.8,181.6,4.2,144.8-11.8,146z"/>
	</g>
	<g id="g826">
		<path id="path828" fill="#FFFFFF" stroke="#000000" stroke-width="0.1" d="M49.5,149c0,0-0.6-1.7,1.4-1.3
			c1.9,0.4,37,2.3,91.1,33.4C142,181.1,64.3,146.7,49.5,149z"/>
	</g>
	<g id="g830">
		<path id="path832" fill="#FFFFFF" stroke="#000000" stroke-width="0.1" d="M57.9,146.6c0,0-0.6-1.7,1.4-1.3
			c1.9,0.4,37,2.3,91.1,33.4C150.4,178.7,73.3,143.9,57.9,146.6L57.9,146.6z"/>
	</g>
	<g id="g834">
		<path id="path836" fill="#FFFFFF" stroke="#000000" stroke-width="0.1" d="M67.5,141.6c0,0-0.6-1.7,1.4-1.3
			c1.9,0.4,45,4.7,134.7,39C203.6,179.3,82.9,138.9,67.5,141.6L67.5,141.6z"/>
	</g>
	<g id="g838">
		<path id="path840" d="M-43.8,148.4c0,0,5.2-0.4,4,1.2s-3.6,0.8-3.6,0.8L-43.8,148.4z"/>
	</g>
	<g id="g842">
		<path id="path844" d="M-13,162.4c0,0,5.2-0.4,4,1.2s-3.6,0.8-3.6,0.8L-13,162.4z"/>
	</g>
	<g id="g846">
		<path id="path848" d="M-21.8,162c0,0,5.2-0.4,4,1.2s-3.6,0.8-3.6,0.8L-21.8,162z"/>
	</g>
	<g id="g850">
		<path id="path852" d="M-117.2,150.2c0,0,5.1,1.3,3.4,2.4s-3.7-0.4-3.7-0.4L-117.2,150.2z"/>
	</g>
	<g id="g854">
		<path id="path856" d="M-115.2,140.6c0,0,5.1,1.3,3.4,2.4s-3.7-0.4-3.7-0.4L-115.2,140.6z"/>
	</g>
	<g id="g858">
		<path id="path860" d="M-122.4,136.2c0,0,5.1,1.3,3.4,2.4s-3.7-0.4-3.7-0.4L-122.4,136.2z"/>
	</g>
	<g id="g862">
		<path id="path864" fill="#CCCCCC" d="M-42.6,211.2l-5.6,2c-2,0-13.2,3.6-18.8,13.6C-67,226.8-54.6,217.2-42.6,211.2z"/>
	</g>
	<g id="g866">
		<path id="path868" fill="#CCCCCC" d="M45.1,303.9c0.1,0.3,0.2,0.7,0.5,0.7c0.7,0,1.9,0.3,1.8-0.3c-0.8-4.3-1.7-9.3-5.9-11
			c-0.6-0.3-2.1,0.1-2.2,1c-0.1,1.5-0.2,2.9,0.1,4.3c0.3,1.4,2.5,1.4,3.4,0C43.7,300.3,44.2,302.1,45.1,303.9L45.1,303.9z"/>
	</g>
	<g id="g870">
		<path id="path872" fill="#CCCCCC" d="M34,308.6c0.7,1.4,0.6,3.3,2,3.8c0.7,0.3,2.6-0.7,2.2-1.8c-0.8-2.1-1.2-4.3-2.6-6.1
			c-0.2-0.3,0-0.8-0.1-1.1c-0.6-1.2-1.7-2-3.1-1.6c-1.1,2.2,0,4.3,1.6,6C34.1,308,33.9,308.4,34,308.6z"/>
	</g>
	<g id="g874">
		<path id="path876" fill="#CCCCCC" d="M-5.6,303.4c-0.1-0.4-0.1-0.8,0-1.2c0.5-1,1.3-2.1,1-3.2c-0.3-1-1.5-0.9-2.1-0.3
			c-1.1,1-1.2,2.8-1.9,4.2c-0.2,0.4-0.1,1-0.6,1.4c-0.5,0.4-0.9,1.9-0.8,2.5c0.1,0.3-0.1,10.2,0.1,10c0.6-0.7,3.7-10.5,3.7-11.4
			C-6.1,304.7-5.3,304.2-5.6,303.4L-5.6,303.4z"/>
	</g>
	<g id="g878">
		<path id="path880" fill="#CCCCCC" d="M-31.2,296.6c2.6-2.5,5.4-5.5,5-9.2c-0.1-1-1.9-0.5-2.1,0.4c-0.8,3.6-2.8,6.3-5.4,8.7
			c-2.2,2-4.1,8.4-4.3,8.9C-34.3,300.1-32,297.4-31.2,296.6z"/>
	</g>
	<g id="g882">
		<path id="path884" fill="#CCCCCC" d="M-44.8,290.6c0.5-0.4,0.2-0.9,0.4-1.2c1-1.5,2.3-2.7,2.3-4.4c0-0.3-0.4-0.6-0.7-0.4
			c-0.3,0.2-0.6,0.3-0.7,0.4c-2,2.5-3.4,5.1-4.9,7.9c-0.2,0.4-1.3,4.9-1,5c0.2,0.1,2-4.1,2.2-4.2C-46,293.1-45.9,291.5-44.8,290.6z"
			/>
	</g>
	<g id="g886">
		<path id="path888" fill="#CCCCCC" d="M-28,310.2c0.4-0.9,2-2.1,1.9-3c-0.1-0.9,0.4-2.4-0.6-1.7c-1.3,0.9-4.7,2.3-5,8.1
			C-31.7,314.2-28.7,311.5-28,310.2L-28,310.2z"/>
	</g>
	<g id="g890">
		<path id="path892" fill="#CCCCCC" d="M-13.6,293c0.4-0.7,1.1-0.2,1.6-0.5c0.6-0.4,1.3-0.9,1.6-1.6c1-2.1,2.7-4,2.9-6.4
			c-1.5-1.4-2.2,0.6-2.8,1.6c-1.3-1.6-2.3,0.2-3.6,0.8c-0.1,0-0.3-0.3-0.4-0.3c-1.2,0.4-1.9,1.5-2.9,2.3c-0.2,0.1-0.6,0-0.7,0.1
			c-0.7,0.6-1.6,0.9-1.9,1.6c-1.1,2.7-4.3,4.8-6.1,12.3c0.4,0.9,4.5-6.6,5-7.3c0.8-1.2,1,1.7,2.2,1c0.1,0,0.2,0.2,0.4,0.3
			c0.2-0.3,0.4-0.5,0.8-0.4c0-0.4-0.1-1,0.1-1.1c1.2-1,1.2-2,1.9-3.3C-15.1,293-14.1,292.3-13.6,293z"/>
	</g>
	<g id="g894">
		<path id="path896" fill="#CCCCCC" d="M46.2,347.4c0,0,7.4-20.4,3-31.6c0,0,11.4,21.6,6.8,32.8c0,0-0.4-10.4-4.4-15.4
			C51.6,333.2,47.6,346,46.2,347.4z"/>
	</g>
	<g id="g898">
		<path id="path900" fill="#CCCCCC" d="M31.4,344.8c0,0,5.4-8.8-2.6-27.2c0,0-0.8,20.4-7.6,31.4C21.2,349,35.4,328.8,31.4,344.8
			L31.4,344.8z"/>
	</g>
	<g id="g902">
		<path id="path904" fill="#CCCCCC" d="M21.4,342.8c0,0-0.2-20,0.2-23c0,0-3.8,16.6-14,26.2C7.6,346,22,334,21.4,342.8z"/>
	</g>
	<g id="g906">
		<path id="path908" fill="#CCCCCC" d="M11.8,310.8c0,0,6,13.6-4,32c0,0,6.4-12.2,1.6-19.2C9.4,323.6,12,320.2,11.8,310.8z"/>
	</g>
	<g id="g910">
		<path id="path912" fill="#CCCCCC" d="M-7.4,342.4c0,0-1-15.6,0.8-17.8c0,0,0.2-6.4-0.2-7.4c0,0,4-6.2,4.2,1.2
			c0,0,1.4,7.8,4.2,12.4c0,0,3.6,5.4,3.4,11.8C5,342.6-5,312.4-7.4,342.4z"/>
	</g>
	<g id="g914">
		<path id="path916" fill="#CCCCCC" d="M-11,314.8c0,0-6.6,10.8-8.4,29.8c0,0-1.4-6.2,2.4-20.6C-17,324-12.8,308.6-11,314.8
			L-11,314.8z"/>
	</g>
	<g id="g918">
		<path id="path920" fill="#CCCCCC" d="M-32.8,334.6c0,0,5-5.4,6.4-10.4c0,0,3.6-15.8-2.8-7.2c0,0,0.2,8-8,15.4
			C-37.2,332.4-32.4,330-32.8,334.6z"/>
	</g>
	<g id="g922">
		<path id="path924" fill="#CCCCCC" d="M-38.6,329.6c0,0,3.4-17.4,4.2-18.2c0,0,1.8-3.4-1-0.2c0,0-8.8,19.2-12.8,25.8
			C-48.2,337-40.2,327.8-38.6,329.6L-38.6,329.6z"/>
	</g>
	<g id="g926">
		<path id="path928" fill="#CCCCCC" d="M-44.4,313c0,0,11.6-22.4-10.2,3.4C-54.6,316.4-43.6,306.6-44.4,313z"/>
	</g>
	<g id="g930">
		<path id="path932" fill="#CCCCCC" d="M-59.8,298.4c0,0,4.8-18.8,7.4-18.6l1.6,1.6c0,0-6,9.6-5.4,19.4
			C-56.2,300.8-56.8,291.2-59.8,298.4z"/>
	</g>
	<g id="g934">
		<path id="path936" fill="#CCCCCC" d="M270.5,287c0,0-12-10-14.5-13.5c0,0,13.5,18.5,13.5,25.5C269.5,299,272,291.5,270.5,287z"/>
	</g>
	<g id="g938">
		<path id="path940" fill="#CCCCCC" d="M276,265c0,0-21-15-24.5-22.5c0,0,26.5,29.5,26.5,34C278,276.5,278.5,267.5,276,265z"/>
	</g>
	<g id="g942">
		<path id="path944" fill="#CCCCCC" d="M293,111c0,0-12-8-13.5-6c0,0,10.5,6.5,13,15C292.5,120,291,111,293,111z"/>
	</g>
	<g id="g946">
		<path id="path948" fill="#CCCCCC" d="M301.5,191.5l-17.5-12c0,0,19,17,19.5,21L301.5,191.5z"/>
	</g>
	<g id="g950">
		<path id="path952" fill="none" stroke="#000000" d="M-89.3,169l22,4.8"/>
	</g>
	<g id="g954">
		<path id="path956" fill="none" stroke="#000000" d="M-39,331c0,0-0.5-3.5-9.5,7"/>
	</g>
	<g id="g958">
		<path id="path960" fill="none" stroke="#000000" d="M-33.5,336c0,0,2-6.5-4.5-2"/>
	</g>
	<g id="g962">
		<path id="path964" fill="none" stroke="#000000" d="M20.5,344.5c0,0,1.5-11-10,2"/>
	</g>
</g>
</svg>
